<svg xmlns="http://www.w3.org/2000/svg" id="Layer_1" style="enable-background:new 0 0 415 373" viewBox="0 0 415 373"><style>.st0{fill-rule:evenodd;clip-rule:evenodd;fill:#599B3B;} .st1{fill-rule:evenodd;clip-rule:evenodd;fill:#D1A17D;} .st2{fill:#131841;} .st3{fill-rule:evenodd;clip-rule:evenodd;fill:#FFE1D4;} .st4{fill-rule:evenodd;clip-rule:evenodd;fill:#131841;} .st5{fill-rule:evenodd;clip-rule:evenodd;fill:#684229;} .st6{fill-rule:evenodd;clip-rule:evenodd;fill:#996D4F;} .st7{fill-rule:evenodd;clip-rule:evenodd;fill:#616A8E;} .st8{fill:none;stroke:#131242;stroke-width:4;} .st9{fill:none;stroke:#121840;stroke-width:2;} .st10{fill-rule:evenodd;clip-rule:evenodd;fill:#292E59;} .st11{fill-rule:evenodd;clip-rule:evenodd;fill:#875D41;} .st12{fill-rule:evenodd;clip-rule:evenodd;fill:#D7D1D0;} .st13{filter:url(#Adobe_OpacityMaskFilter);} .st14{fill-rule:evenodd;clip-rule:evenodd;fill:#FFFFFF;} .st15{mask:url(#mask-2_2_);fill-rule:evenodd;clip-rule:evenodd;fill:#F05A29;} .st16{filter:url(#Adobe_OpacityMaskFilter_1_);} .st17{mask:url(#mask-4_2_);fill:none;stroke:#121840;stroke-width:2;} .st18{filter:url(#Adobe_OpacityMaskFilter_2_);} .st19{mask:url(#mask-6_2_);fill:none;stroke:#121840;stroke-width:2;} .st20{filter:url(#Adobe_OpacityMaskFilter_3_);} .st21{mask:url(#mask-8_2_);fill-rule:evenodd;clip-rule:evenodd;fill:#292E59;} .st22{filter:url(#Adobe_OpacityMaskFilter_4_);} .st23{mask:url(#mask-10_2_);fill:none;stroke:#121840;stroke-width:2;} .st24{filter:url(#Adobe_OpacityMaskFilter_5_);} .st25{mask:url(#mask-12_2_);fill-rule:evenodd;clip-rule:evenodd;fill:#292E59;} .st26{filter:url(#Adobe_OpacityMaskFilter_6_);} .st27{mask:url(#mask-14_2_);fill:none;stroke:#121840;stroke-width:2;} .st28{filter:url(#Adobe_OpacityMaskFilter_7_);} .st29{mask:url(#mask-16_2_);fill-rule:evenodd;clip-rule:evenodd;fill:#292E59;} .st30{filter:url(#Adobe_OpacityMaskFilter_8_);} .st31{mask:url(#mask-18_2_);fill:none;stroke:#121840;stroke-width:2;} .st32{filter:url(#Adobe_OpacityMaskFilter_9_);} .st33{mask:url(#mask-20_2_);fill-rule:evenodd;clip-rule:evenodd;fill:#292E59;} .st34{filter:url(#Adobe_OpacityMaskFilter_10_);} .st35{mask:url(#mask-22_2_);fill:none;stroke:#121840;stroke-width:2;} .st36{filter:url(#Adobe_OpacityMaskFilter_11_);} .st37{mask:url(#mask-24_2_);fill-rule:evenodd;clip-rule:evenodd;fill:#292E59;} .st38{filter:url(#Adobe_OpacityMaskFilter_12_);} .st39{mask:url(#mask-26_2_);fill:none;stroke:#121840;stroke-width:2;} .st40{filter:url(#Adobe_OpacityMaskFilter_13_);} .st41{mask:url(#mask-30_2_);fill-rule:evenodd;clip-rule:evenodd;fill:#FFFFFF;} .st42{filter:url(#Adobe_OpacityMaskFilter_14_);} .st43{mask:url(#mask-34_2_);fill-rule:evenodd;clip-rule:evenodd;fill:#FFFFFF;} .st44{fill-rule:evenodd;clip-rule:evenodd;fill:#121840;} .st45{fill-rule:evenodd;clip-rule:evenodd;fill:#E2E4F4;} .st46{fill-rule:evenodd;clip-rule:evenodd;fill:#C5C9E8;} .st47{fill-rule:evenodd;clip-rule:evenodd;fill:#A7AEDD;} .st48{fill-rule:evenodd;clip-rule:evenodd;fill:#8A93D1;} .st49{fill-rule:evenodd;clip-rule:evenodd;fill:#6D78C6;} .st50{fill:none;stroke:#121840;stroke-linecap:round;} .st51{fill-rule:evenodd;clip-rule:evenodd;fill:#445AA7;} .st52{fill:none;stroke:#121840;stroke-width:0.5;stroke-linecap:round;}</style><g id="Page-1"><g id="start_1" transform="translate(-715 -2833)"><g id="chief" transform="translate(715 2833)"><path id="Rectangle" d="M0 0h415v373H0z" class="st0"/><g id="Group-353"><g id="Group-237" transform="translate(.788 -36.58)"><path d="M406.4 406.4c-9.1-36.4-21.7-76.7-24.1-86.9-3.8-15.7-40.1-29.6-53.9-32.9-13.8-3.4-66.5-15.1-66.5-15.1l-87.2-26.1s-23.8 4.5-25 10.1c-1.3 5.6-43.8 25.8-47.5 26.9-3.8 1.1-38.8 11.2-47.5 21.3-5.5 6.2-21.7 49.3-34.9 102.7h386.6z" class="st1"/><path d="M21.8 406.4c2.5-10.1 4.9-19 6.9-26.2C40.6 338 52.2 309.5 56 305.1c5.1-5.9 21.9-13.4 46.1-20.6l.5-.2c2.1-.6 13.8-6 25.1-11.9 22.8-12 23.5-15.1 23.8-16.5.5-2.3 11.2-6.2 23-8.5l86.8 26h.1c.5.1 52.9 11.7 66.5 15 16.1 3.9 49.2 17.7 52.5 31.5.9 3.9 3.3 12.2 6.4 22.6 5.1 17.6 12 41.4 17.6 63.8h4.1c-5.7-22.8-12.7-47.1-17.9-64.9-3-10.4-5.4-18.6-6.3-22.5-4.3-18.2-45.4-31.9-55.4-34.4-13.4-3.3-64.3-14.6-66.5-15.1l-87.2-26.1c-.3-.1-.6-.1-.9 0-5.9 1.1-25.2 5.2-26.6 11.6-1.8 4.5-40.9 24-46.2 25.5l-.5.2c-14.6 4.3-40.3 12.9-47.9 21.8-4.6 5.3-16.7 36.2-28.1 76.7-2.1 7.4-4.6 16.7-7.2 27.3h4z" class="st2"/><path id="Fill-6" d="M289.4 256.5s-17.7 45.2-16.9 50.5c.9 5.3-23.1-23.9-23.1-23.9l6.2-31.9 33.8 5.3z" class="st3"/><path id="Fill-8" d="M251.6 282.5c7.3 8.8 15.4 18.1 19.3 21.7 1.9-9.9 12-36.5 15.8-46.2l-29.4-4.6-5.7 29.1zm20.7 27.1c-1.8 0-6.2-3.1-24.4-25.3-.4-.5-.5-1-.4-1.6l6.2-31.9c.2-1 1.2-1.7 2.2-1.6l33.7 5.3c.6.1 1.1.4 1.4 1 .3.5.3 1.1.1 1.7-8.6 21.8-17.2 46.3-16.7 49.4.2 1.5-.5 2.4-1.3 2.7-.1.2-.4.3-.8.3z" class="st4"/><path id="Fill-10" d="M191.8 209.5l-8.9 31.9 26.6 16v-32.8z" class="st3"/><path id="Fill-12" d="M185.2 240.5l22.3 13.4v-28.4L192.9 213l-7.7 27.5zm24.4 18.8c-.4 0-.7-.1-1-.3L182 243.1c-.8-.5-1.1-1.4-.9-2.2L190 209c.2-.6.7-1.2 1.3-1.4s1.3-.1 1.9.4l17.7 15.1c.4.4.7.9.7 1.5v32.8c0 .7-.4 1.4-1 1.7-.4.1-.7.2-1 .2z" class="st4"/><path id="Fill-14" d="M188.9 217.5s-4.1 8.2 10.3 23.6c14.4 15.4 40.2 37 40.2 37s-13.4 5.1-15.4 11.3-10.3 17.5-10.3 17.5-13.4-25.7-17.5-30.8c-4.1-5.1-19.6-30.8-23.7-28.8-4.1 2.1 7.2-15.4 7.2-15.4s1-13.4 9.2-14.4" class="st1"/><path id="Fill-16" d="M174.1 245.4c3.4 1.1 8.5 7.3 18.7 22.4 2.1 3.1 3.9 5.8 4.9 7 3.4 4.2 12.6 21.4 16.2 28.3 2.5-3.6 6.8-10.3 8.2-14.3 1.7-5.1 9.3-9.2 13.6-11.2-6.8-5.8-26.2-22.6-37.9-35.1-6.2-6.7-10-12.9-11-18.6-.2-1.3-.3-2.4-.3-3.3-4 3.1-4.8 11.3-4.8 11.4 0 .3-.1.6-.3.9-3 4.4-6.1 9.7-7.3 12.5m39.5 63.5h-.1c-.7-.1-1.3-.4-1.6-1.1-.1-.3-13.3-25.6-17.3-30.5-1.1-1.4-2.9-4-5.1-7.3-4-6-13.4-19.9-16.4-20.8-1.6.7-2.6-.2-2.9-.5-.9-1-2.2-2.4 7.6-17.5.3-2.7 2.1-14.6 10.9-15.7.7-.1 1.4.2 1.9.8.4.6.5 1.3.2 2-1.1 2.5-.5 10.3 10 21.5 14.2 15.2 39.7 36.6 40 36.9.5.4.8 1.1.7 1.8-.1.7-.6 1.3-1.2 1.5-4.8 1.9-13 6.3-14.3 10.1-2.1 6.4-10.2 17.5-10.6 18-.6.5-1.2.8-1.8.8" class="st4"/><path id="Fill-18" d="M291.4 250.8s16.2 30.6 19.3 29.6c3.1-1 17.8 6.4 17.8 6.4l-10.3 11.3h-16.5l-18.5-19.5 8.2-27.8z" class="st1"/><path id="Fill-20" d="M302.5 296.1h14.8l8-8.7c-6-2.9-12.5-5.4-14-5.1-1.5.5-4.4 1.4-19.4-26.3l-6.6 22.1 17.2 18zm15.6 4h-16.5c-.5 0-1.1-.2-1.4-.6L281.7 280c-.5-.5-.7-1.2-.5-1.9l8.2-27.8c.2-.8.9-1.3 1.7-1.4.8-.1 1.6.3 1.9 1 6.6 12.5 15 26.6 17.6 28.5 2-.2 6.8.7 18.6 6.6.5.3.9.8 1 1.4s-.1 1.2-.5 1.7l-10.3 11.3c-.2.4-.7.7-1.3.7z" class="st4"/><path id="Fill-22" d="M172.3 126.3c24 2.8-25.9-.3-47.9-31-4.2-5.9 28.1-1.7 59.3 1.3 31.2 2.9 199.8 22.2 211.3 19.6 11.6-2.6-39.9 16.7-52.8 16.7-12.8 0-169.9-6.6-169.9-6.6" class="st5"/><path id="Fill-24" d="M176.3 124.5c24.4 1 154.5 6.4 166 6.4 7.8 0 31.5-7.7 44.5-12.6-24.2-.9-91.9-7.9-160.4-15.3-19.7-2.1-35.3-3.8-42.9-4.5-4.8-.4-9.5-.9-14.2-1.4-17.1-1.7-38.1-3.8-42.9-2.4 5.1 6.9 19.5 22.2 49.9 29.8m166 10.3c-11.3 0-130.1-4.9-162.3-6.3-.7.6-1.8.4-2.4.4-1-.1-2.7-.4-5.5-.7-.8-.1-1.4-.6-1.6-1.3-29.2-8.5-42.9-23.9-47.7-30.6-1.2-1.7-.6-3-.4-3.5 2.2-3.8 14-3 47.2.3 4.7.5 9.4.9 14.2 1.4 7.6.7 23.2 2.4 43 4.5 55.7 6 159.3 17.1 167.8 15.2 1.4-.3 2.8-.6 3.6.5.5.6.6 1.5.2 2.1-.4.7-.6 1.3-8.3 4.2-4.5 1.8-10.4 3.9-16.1 5.7-8.8 3.2-24.8 8.1-31.7 8.1" class="st4"/><path id="Fill-26" d="M314.8 141.9s6.4-11.9 14.3-10.3c7.9 1.6 7.3 13.7-.2 29.1-7.6 15.3-9.7 23.4-21.1 21.5" class="st3"/><path id="Fill-28" d="M310.8 184.4c-1.1 0-2.2-.1-3.4-.3-1.1-.2-1.8-1.2-1.6-2.3.2-1.1 1.2-1.8 2.3-1.6 8.2 1.4 10.4-2.6 16.4-15.1.8-1.7 1.6-3.4 2.6-5.3 5.1-10.4 7-19.5 4.8-23.8-.7-1.4-1.7-2.2-3.2-2.5-5.3-1.1-10.5 6.4-12.1 9.3-.5 1-1.7 1.3-2.7.8s-1.3-1.7-.8-2.7c.3-.5 7.2-13.2 16.4-11.3 2.7.5 4.8 2.1 6 4.6 2.7 5.6 1 15.5-4.8 27.3-.9 1.9-1.8 3.6-2.6 5.3-5.2 10.7-8.5 17.6-17.3 17.6" class="st4"/><path id="Fill-30" d="M330 112.6l-4.1 31.4-4.7-33.1z" class="st4"/><path d="M327.1 88.7c-.3-12.6-14.5-28.7-14.5-28.7l-1.7-.3c-2.5-9-17.1-16-35-20.1h-68.5c-2.8 1.2-5 2.7-6.4 4.5-13.1 17.4-20.1 45.8-20 74.7.1 28.8 6.4 58.8 13.7 82.6 7.3 23.9 79.2 55 90.1 49.8s29.1-50.5 32.6-59.8 10.6-53 8.6-56.9c-2-4 1.5-33.1 1.1-45.8z" class="st3"/><path d="M329.1 88.7c-.4-13.2-14.5-29.3-15.1-30-.3-.3-.7-.6-1.1-.6l-.6-.1c-3.5-9.1-17.1-15-28.8-18.4h-17.8l3.6.6c22.2 4.2 37.4 11.9 39.6 20 .2.7.8 1.3 1.5 1.4l1.1.2c2.3 2.8 13.3 16.4 13.6 27 .2 5.3-.4 13.6-.9 21.6-1 15.4-1.3 22.5-.1 24.9 1.4 4.1-5.2 46-8.7 55.4-.2.6-6 15.8-13.5 31.2-10.3 21.2-15.8 26.3-18.1 27.4-3.2 1.5-16-1.1-34.3-9.1-23.5-10.3-49-26.4-53-39.4-5-16.3-13.5-48.7-13.6-82.1-.1-29.5 7.2-57 19.6-73.5 1.8-2.4 5.7-4.4 10.9-5.7h-10.3c-1.6 1-2.9 2.1-3.8 3.4-12.8 17.1-20.4 45.5-20.3 75.8.1 33.9 8.7 66.7 13.8 83.2 4.7 15.2 32.7 32 55.2 41.9 11.7 5.1 25.5 9.8 33.3 9.8 1.7 0 3.2-.2 4.3-.7 12.8-6.1 32.8-58.6 33.6-60.8 1.9-5.1 4.7-19.2 6.5-30.9 1.7-11.1 3.5-24.8 2.1-27.7-.9-1.9-.1-14.1.5-22.9.4-8.1 1-16.5.8-21.9z" class="st4"/><path id="Fill-36" d="M265.7 185.1s-14.1 1.6-18.9 4.6c-13.3 8.4-22.8 11.1-33.6-3.4 0 0 2.2 17.5 17.9 20.4 10.6 1.9 29.4-8.1 36.6-7.7 7.1.4 6.2-14.2-2-13.9" class="st4"/><path id="Fill-38" d="M308.1 190.2s-8.6 12.8-16.4 6c-9.4-8-13.7-8.8-18.1-9.6s-9.1 10-3.1 12c5.9 2 11 3.8 16.8 6.7 5.8 2.8 20.5 1 20.8-15.1" class="st4"/><path id="Fill-40" d="M237.5 149.4c-4.8 0-7.9-2.3-8.1-2.4-.9-.7-1-1.9-.4-2.8.7-.9 1.9-1 2.7-.4.2.1 4.1 2.9 9.7.9 1-.4 2.1.2 2.5 1.2s-.2 2.1-1.2 2.5c-1.8.7-3.6 1-5.2 1" class="st4"/><path id="Fill-42" d="M240.7 139.6c-.5 2.6-3 4.4-5.7 3.9s-4.4-3-3.9-5.7c.5-2.6 3.1-2.6 5.8-2.1s4.3 1.2 3.8 3.9" class="st0"/><path id="Fill-44" d="M234.5 137.4c-1.3 0-1.4.4-1.4.7-.1.8 0 1.5.5 2.2.4.6 1.1 1.1 1.9 1.2 1.6.3 3.1-.8 3.4-2.3.2-.9.2-1.1-2.2-1.6-1.1-.1-1.7-.2-2.2-.2zm1.4 8.1c-.4 0-.8 0-1.2-.1-1.8-.3-3.4-1.3-4.4-2.8s-1.4-3.3-1.1-5.1c.6-3.3 3.3-4.5 8.1-3.7 1.7.3 6.3 1.2 5.4 6.1-.7 3.3-3.5 5.6-6.8 5.6z" class="st4"/><path id="Fill-46" d="M250.5 147.4c-.7 0-1.3-.3-1.7-1-1.1-1.8-4.6-6.7-8.2-8-4.6-1.6-9.9-2.7-14.6 1.9-.8.8-2 .7-2.8 0-.8-.8-.7-2 0-2.8 6.4-6.2 13.8-4.6 18.7-2.8 5.7 2 10 9.4 10.2 9.7.5.9.2 2.1-.7 2.7-.3.2-.6.3-.9.3" class="st4"/><path id="Fill-48" d="M296.2 153.8c-4.8 0-7.9-2.3-8.1-2.4-.9-.7-1-1.9-.4-2.8.7-.9 1.9-1 2.7-.4.2.1 4.1 2.9 9.7.9 1-.4 2.1.2 2.5 1.2s-.2 2.1-1.2 2.5c-1.8.7-3.6 1-5.2 1" class="st4"/><path id="Fill-50" d="M299.3 144.9c-.5 2.6-3 4.4-5.7 3.9s-4.4-3-3.9-5.7c.5-2.6 3.3-2.8 6-3 3.6-.2 4 2.1 3.6 4.8" class="st0"/><path id="Fill-52" d="M296.1 142.1h-.5c-3.1.2-3.9.5-4 1.3s0 1.5.5 2.2c.4.6 1.1 1.1 1.9 1.2.8.1 1.5 0 2.2-.5.6-.4 1.1-1.1 1.2-1.9.2-1.3.1-1.9-.1-2.2-.2 0-.5-.1-1.2-.1m-1.6 8.7c-.4 0-.8 0-1.2-.1-1.8-.3-3.4-1.3-4.4-2.8s-1.4-3.3-1.1-5.1c.8-4.1 4.9-4.4 7.7-4.6h.1c2.1-.1 3.7.4 4.7 1.6 1.1 1.3 1.5 3.1 1 5.5-.3 1.8-1.3 3.4-2.8 4.4-1.3.7-2.6 1.1-4 1.1" class="st4"/><path id="Fill-54" d="M309.5 150.1c-.7 0-1.4-.4-1.8-1.1-2.8-6-8.2-6.9-13-7-3.8-.1-8.9 3.3-10.5 4.6-.8.7-2.1.6-2.8-.3-.7-.8-.6-2.1.3-2.8.3-.2 7-5.6 13-5.5 5.3.1 12.7 1.1 16.5 9.2.5 1 0 2.2-.9 2.6-.2.2-.5.3-.8.3" class="st4"/><path id="Fill-56" d="M255.1 173.8s-6.4 10.5.9 10.1" class="st3"/><path id="Fill-58" d="M255.5 185.8c-2.5 0-3.7-1.1-4.3-2.1-.5-.9-1.9-4.2 2.2-11 .6-.9 1.8-1.2 2.7-.7.9.6 1.2 1.8.7 2.7-1.6 2.7-2.7 6-2.2 6.9.1.1.5.3 1.3.2 1.1-.1 2 .8 2.1 1.8.1 1.1-.8 2-1.8 2.1-.3.1-.5.1-.7.1" class="st4"/><path id="Fill-60" d="M258.8 182.9s2.1-1.4 6.7 3 8.5 2.3 11.5-.3c3.3-3 5.5-2.8 6.2-1.8" class="st3"/><path id="Fill-62" d="M270.9 190.4c-2.3 0-4.6-1-6.7-3.1-2.8-2.7-4.2-2.7-4.4-2.7-.9.4-1.9.2-2.5-.6-.6-.9-.4-2.1.5-2.7.6-.4 3.7-2.1 9.1 3.2 2.9 2.8 5.4 2.7 8.8-.3 3-2.7 5.3-3.1 6.6-2.9 1.1.1 2 .7 2.6 1.5.6.9.4 2.1-.5 2.7-.8.6-2 .4-2.6-.3-.4 0-1.6.3-3.4 2-2.7 2.1-5.1 3.2-7.5 3.2z" class="st4"/><path id="Fill-64" d="M269.1 212.4c-9 0-17-4.6-17.3-4.8-.9-.5-1.3-1.7-.7-2.7.5-.9 1.7-1.3 2.7-.7.1 0 7.7 4.4 15.8 4.2 8-.2 13-3.6 13-3.6.9-.6 2.1-.4 2.7.5s.4 2.1-.5 2.7c-.2.2-6 4.1-15.2 4.3-.1.1-.3.1-.5.1" class="st4"/><path id="Fill-66" d="M272.9 205.9c-5.3 0-11.5-1.1-11.8-1.2-1.1-.2-1.8-1.2-1.6-2.3.2-1.1 1.2-1.8 2.3-1.6.1 0 8.7 1.6 13.7 1 1.1-.1 2.1.6 2.2 1.7.1 1.1-.6 2.1-1.7 2.2-1 .2-2 .2-3.1.2" class="st4"/><path id="Fill-68" d="M269 129.4s.2 10.5-8.9 8.9c-9.1-1.7-22.2-4.1-29.8-8.4-7.5-4.4-15.7.1-20.8 5.2 0 0 2.7-14.5 18.1-13.2s24.7 7.5 31.3 5.7c6.6-1.9 10.7-1.1 10.1 1.8" class="st4"/><path id="Fill-70" d="M283 128.8c-1.4 4.4 5.7 4.6 8.6 5.1 6.5 1.2 18.7-8.4 22.2-6.6 3.5 1.8 9.1 7.6 9.1 7.6s-4.9-15.1-7.6-15.6-9.2 3.1-15.1 4.3c-6 1.3-15.1-1.5-17.2 5.2" class="st4"/><path id="Fill-72" d="M275.9 170.9c-.9 0-1.7-.6-1.9-1.6-1-4.8 2.3-32.1 2.7-35.2.1-1.1 1.1-1.8 2.2-1.7s1.8 1.1 1.7 2.2c-1.4 11.5-3.4 30.8-2.8 34 .2 1.1-.5 2.1-1.5 2.3h-.4" class="st4"/><path id="Fill-74" d="M186.9 132.9l-5.7-18.1s-.6 1 .8-21.2 20.2-34.4 20.2-34.4-5.4 9.8-3.7 20 5.9 11.9 2.2 17.5-10.7 38.6-10.4 42.2c.3 3.7-3.4-6-3.4-6" class="st4"/><path id="Fill-76" d="M188.5 129.4s-3-13.2-11-13.7c-8-.6-12.5 9.4-9.3 26.2s5 27 16.5 28.2" class="st3"/><path id="Fill-78" d="M184.6 172.1h-.2c-12.7-1.3-14.8-12.3-18-28.8l-.2-1c-2.2-11.3-1-20.5 3.2-25.2 2.2-2.4 5-3.6 8.2-3.4 9.4.7 12.7 14.6 12.8 15.2.2 1.1-.4 2.1-1.5 2.4-1.1.2-2.1-.4-2.4-1.5-.8-3.3-3.9-11.8-9.2-12.2-2-.1-3.7.5-5 2-3.3 3.7-4.2 11.9-2.3 21.8l.2 1c3.3 17.1 5.1 24.6 14.5 25.6 1.1.1 1.9 1.1 1.8 2.2-.1 1.1-.9 1.9-1.9 1.9" class="st4"/><path id="Fill-80" d="M324.1 167c-1.4 2.6 1.5 17.7 2.1 20.6.7 3.5-.4 7.2-2.8 9.8-.4.4-.8.8-1 1.3-.3.6-.4 1.4-.3 2.1.2 3.5 1.6 7.6-.7 10.2-.7.8-1.6 1.3-2.3 2.1-2.6 2.8-1.1 7.5-2.4 11.1-.7 2.1-5.3 7.1-7.5 9.4" class="st4"/><path id="Fill-82" d="M195.9 226.4c.1 2.2 1.9 9.4.2 13.2-.8 2-.1 4.8 1.9 5.7 1.4.6 3.3.2 4.2 1.4.3.4.4.9.5 1.4.2 1.7.1 3.4.4 5.1.7 4.4 4.9 8 9.4 8.1.8 0 1.7 0 2.3.4s.9 1.2 1.2 1.9c1.7 4.2 4.3 8.1 7.7 11.2 1.9 1.7 4.1 3.2 6.6 3.9 2.5.7 5.3.5 7.4-.9.8-.5 1.5-1.2 2.4-1.5s1.6 0 1.7.9c2.5 2.4 5 4.9 7.5 7.3 1.8 1.7 3.8 3.5 6.3 4 1.8.4 3.7 0 5.5-.4 1.4-.3 2.9-.7 4-1.6.9-.8 1.4-1.8 2.3-2.5 1.6-1.1 3.8-.6 5.7-.3 5.3.7 11.2-1.3 13.7-6 1.3-2.6 1.6-5.6 3.1-8.1 2.4-4 7.8-5.9 9.4-10.3.9-2.5.5-5.4 2-7.6 1.3-1.8 4-2.3 5.4-4.1 5.4-6.5-1.7-6.9 4.9-18.3" class="st4"/><path id="Fill-84" d="M191.1 130s-2.9 35.5-1.3 36.7c1.6 1.2 8 36.7 23.7 43 15.9 6.5 18.2-5.7 18.2-5.7l7.8 1.8s-5.2 14 4.4 15.8c9.6 1.8 9.1-5.5 13.7-5.6 4.5-.1 11.8-.5 14.3.8 2.5 1.4 10.9 7 13.5 5.2 7.2-5 4.2-18.1 4.2-18.1l6.8 2.1s-3.3 12.9 5 7.2 13.4-23.7 14.7-26.1c1.4-2.5 5.6-20.6 7.2-29.3 0 0 4.9 32.4-8.2 64.2s-27.8 53.4-32.8 56.1c-5 2.7-27.9 4.8-40.5-.2s-34.8-19.2-38.7-35c-4.1-17-12.9-23.1-17-30.1-4.1-7.1-4.6-34.1-2.4-41 2.2-6.8 4.7-45.1 4.7-45.1l2.7 3.3z" class="st4"/><path id="Fill-86" d="M185.9 161.8c-.1 2.9-2.7 5.2-3.2 8-.4 2.7 1.2 5.3 1 7.9-.2 2.9-2.3 5.2-3.3 7.8-.9 2.4-.9 5 0 7.4 1.2 3.2 4 6.1 3.2 9.4" class="st4"/><path d="M331.3 41.9c.1-.8.1-1.6.1-2.4H191.5c-4.9 20.1-11.8 58.4-11.8 58.4s159.2 15.3 156.6 10.2c-2.5-5.1-6.3-49.6-5-66.2z" class="st1"/><g id="Group-92" transform="translate(177.25)"><path d="M156 42.1c.1-.9.1-1.7.1-2.6h-3.9c0 .8 0 1.5-.1 2.3-1.1 14.8 1.8 54.6 4.6 65.2-12.7 1.5-95.5-5.5-151.9-10.9 3.3-18.3 8.1-42.7 11.5-56.6h-4C7.6 58.7 1.5 92.6.6 97.5c-.1.5 0 1.1.4 1.5.3.4.8.7 1.4.8.4 0 38.9 3.7 77.2 6.8 41.2 3.3 61.2 4.4 71.1 4.4 9 0 9.6-.9 10.1-1.6s.5-1.5.2-2.2c-2.3-4.4-6.3-48-5-65.1z" class="st4"/></g><path id="Fill-93" d="M174.1 124.5s-3.5 1.8-1.8 15.1" class="st3"/><path id="Fill-95" d="M172.3 141.5c-1 0-1.8-.7-1.9-1.7-1.8-13.6 1.7-16.5 2.8-17.1 1-.5 2.2-.1 2.6.9.5.9.1 2-.7 2.5-.2.2-2.3 2.7-.9 13.1.1 1.1-.6 2.1-1.7 2.2 0 .1-.1.1-.2.1" class="st4"/><path d="M279.7 39.5c-.2 1.3-.4 2.4-.6 3.2-.3 1.1.4 2.1 1.4 2.4.2 0 .3.1.5.1.9 0 1.7-.6 1.9-1.5 0-.2.4-1.8.8-4.2h-4zM296.4 39.5h-3.9V43.2c0 1.1.9 2 2 2s2-.9 2-2v-.5c-.2-1.1-.2-2.2-.1-3.2z" class="st4"/><path id="Fill-101" d="M185.9 78.6s137.9 7.7 147.3 9.6l3.2 21.3-157-9.7 6.5-21.2z" class="st4"/><path id="Fill-103" d="M399.3 115.8s-10.4-.1-42.5-9c-38.1-10.6-37.3-6.2-90.5-6.2-41.9 0-82.5-12.4-141.9-5.3 0 0 202 15.1 227.1 18.6 25.7 3.5 47.8 1.9 47.8 1.9" class="st1"/><path id="Fill-105" d="M150.3 95.3c55.3 4.2 182.1 14 201.5 16.7 9.2 1.3 18 1.9 25.5 2.1-5.6-1.3-12.6-3-21-5.4-27.4-7.6-34.2-7.4-56.4-6.7-8.4.3-18.9.6-33.5.6-15.5 0-30.8-1.7-46.9-3.5-20.6-2.3-43.2-4.7-69.2-3.8m236 22.8c-8.9 0-21.6-.4-35.1-2.3-24.7-3.4-225-18.4-227-18.6-1-.1-1.8-.9-1.8-1.9s.7-1.9 1.7-2c37.8-4.5 68.5-1.1 95.7 1.9 16 1.8 31.2 3.4 46.5 3.4 14.5 0 25-.3 33.4-.6 22.2-.7 29.6-.9 57.6 6.9 31.2 8.7 41.9 8.9 42 8.9 1.1 0 1.9.9 1.9 1.9 0 1.1-.8 1.9-1.8 2-.1.1-5.1.4-13.1.4" class="st4"/><path id="Fill-107" d="M318.7 298.1s.9 16.9 0 23.9c-1.5 11.5-31 33.7-31 33.7s-37.3-18.6-5.3-77.9l19.5 20.4h16.8v-.1z" class="st6"/><path id="Fill-109" d="M282.8 281.1c-10.8 20.9-14 38.8-9.5 53.1 3.6 11.5 11.4 17.3 14.2 19.1 8.7-6.6 28.1-23.1 29.2-31.5.7-5.4.3-17.1.1-21.7h-15c-.5 0-1.1-.2-1.4-.6l-17.6-18.4zm4.8 76.5c-.3 0-.6-.1-.9-.2-.5-.2-12.2-6.2-17.2-21.9-5.1-16-1.4-35.7 11-58.7.3-.6.8-.9 1.5-1 .6-.1 1.3.1 1.7.6l18.9 19.8h16c1 0 1.9.8 2 1.9 0 .7.9 17.2 0 24.3-1.6 12-28.7 32.7-31.8 35-.4.1-.8.2-1.2.2z" class="st4"/><path d="M309.6 406.4c-4.9-23.6-10.4-45.2-13.2-49.7-5.8-9.3-31.6-63-31.6-63-8.2 1.2-12.9-15.2-12.9-15.2h-14L271 406.4h38.6z" class="st1"/><path d="M237.9 280.6h12.6c.5 1.6 1.6 4.3 3.1 7 3.5 6.3 7.2 8.1 10 8.2 3.9 8.1 25.7 53.4 31.1 62 2.6 4.2 8 25.3 12.9 48.6h3.9c-5-23.9-10.5-46-13.5-50.7-5.7-9.1-31.2-62.3-31.4-62.8-.4-.8-1.2-1.2-2.1-1.1-5.3.7-9.6-10-10.7-13.8-.2-.8-1-1.4-1.9-1.4h-14c-1.1 0-2 .9-2 2 .1 1.1.9 2 2 2z" class="st4"/><path d="M281.5 406.4c-4.2-14.7-7.8-26.6-8.9-32.2-2.7-13.3-41.5-92-41.5-92l26.5 124.2h23.9z" class="st1"/><path d="M270.6 374.7c.8 4.1 2.9 11.4 5.6 20.6 1 3.5 2.1 7.2 3.2 11.2h4.1c-1.2-4.4-2.4-8.5-3.5-12.3-2.6-9.1-4.7-16.3-5.5-20.3-2.7-13.4-40.1-89.2-41.7-92.5-.5-1-1.7-1.4-2.6-.9-1 .5-1.4 1.7-.9 2.6.4.8 38.7 78.7 41.3 91.6z" class="st4"/><path id="Fill-121" d="M181.1 254.1l-7.9 7.9h-12.4l-4.5 13.5-15.8-3.4-34.8 11.2" class="st1"/><path id="Fill-123" d="M105.7 285.3c-.8 0-1.6-.5-1.9-1.4-.3-1 .2-2.1 1.3-2.5l34.9-11.2c.3-.1.7-.1 1-.1l14 3 3.9-11.8c.3-.8 1-1.3 1.9-1.3h11.6l7.3-7.3c.8-.8 2-.8 2.8 0s.8 2 0 2.8l-7.9 7.9c-.4.4-.9.6-1.4.6h-11l-4.1 12.1c-.3 1-1.3 1.5-2.3 1.3l-15.2-3.3-34.4 11.1c-.1.1-.3.1-.5.1" class="st4"/><path d="M122.4 406.4c-12.5-82.9-68.1-102.1-68.1-102.1l48.3 102.1h19.8z" class="st1"/><path d="M53.7 306.2c.2.1 18.7 6.7 36.4 28 17.7 21.4 26.5 47.4 30.3 72.3h4c-5.5-36.5-19.2-60.3-31.4-75-9.6-11.5-19.3-18.7-25.8-22.8-7.1-4.4-11.9-6.1-12.1-6.2-1-.4-2.1.2-2.5 1.2-.5 1 0 2.1 1.1 2.5zM131.8 406.4h4c3.6-27.8-2-41.6-2.3-42.4-.4-1-1.6-1.5-2.6-1-1 .4-1.5 1.6-1 2.6.1.2 5.5 13.6 1.9 40.8zM322.7 406.4h4.2c-.7-1.8-1.3-3.3-2-4.3-.6-.9-1.9-1.1-2.7-.5-.9.6-1.1 1.8-.5 2.7.3.6.7 1.3 1 2.1z" class="st4"/><path d="M262.5 406.4l-8-28.6h-38.2l-54.6 8.7s2.7 9.6 5.9 19.9h94.9z" class="st1"/><path d="M165.5 406.4h4.1c-2.3-7.6-4.4-14.8-5.4-18.3l52.3-8.3H253l7.4 26.7h4.1l-8.1-29.2c-.2-.9-1-1.4-1.9-1.4H216l-54.6 8.7c-.6.1-1 .4-1.4.9-.3.5-.4 1.1-.2 1.6 0 .1 2.6 9.3 5.7 19.3z" class="st4"/><path d="M224.2 406.4c-2.9-12.9-6.2-26.8-7.6-28.6l6.9 28.6h.7z" class="st7"/><path d="M226.3 406.4c-3-13.5-6.4-27.7-8-29.8l-3.2 2.3c1.1 1.6 4 13.2 7.1 27.5h4.1z" class="st4"/><path d="M390.9 406.4l-.6-23.1-27-4.6-48.1 2.3s3.5 13 6.8 25.4h68.9z" class="st1"/><path d="M319.9 406.4h4.1c-2.5-9.4-5.1-19.2-6.3-23.6l45.4-2.2 25.2 4.3.6 21.5h3.9l-.6-23.2c0-.9-.7-1.7-1.6-1.9l-27-4.6h-.4l-48.1 2.3c-.6 0-1.1.3-1.5.8s-.5 1.1-.3 1.7c0 .2 3.4 12.8 6.6 24.9z" class="st4"/><path d="M363.1 406.4h4.2c-4-11-9.5-23.1-15.4-27.9-.8-.7-2.1-.6-2.8.3-.7.8-.6 2.1.3 2.8 4.1 3.3 8.8 11.9 13.7 24.8z" class="st4"/></g></g><path d="M2 2h411v369H2z" class="st8"/></g></g></g><g id="Page-1_1_"><g id="start_1_1_" transform="translate(-889 -3128)"><g id="story" transform="translate(273 2833)"><g id="Group-144" transform="translate(584 296)"><path id="Stroke-1" d="M234.6 277.5" class="st9"/><path id="Fill-2" d="M231.1 305l5.1 3 2.7-5.1-5.1-3-2.7 5.1zm6.9 9.1l-12.8-7.5 6.9-12.9 12.8 7.5-6.9 12.9z" class="st10"/><path id="Stroke-11" d="M231.1 305l5.1 3 2.7-5.1-5.1-3-2.7 5.1zm6.9 9.1l-12.8-7.5 6.9-12.9 12.8 7.5-6.9 12.9zm-76.2-38.6" class="st9"/><g id="Group-28" transform="translate(0 .726)"><path id="Stroke-22" d="M209.4 327.1l25.8 6.6 17-15.8-12.2-37.6-18.1.7-23.4 6.2-.2.5c-.1.1 11.1 39.4 11.1 39.4zm24.6 10.5l-25.8-7.6-12.8-42.5 25.5-8.7 20.5-1 13.8 38.6-21.2 21.2zm-72.2-62.1" class="st11"/><path id="Fill-24_1_" d="M210.2 324.8l25 6.6 17.8-16.5-11.3-39.3-23.6 2.9-20 6.7z" class="st12"/><path id="Stroke-26" d="M210.2 324.8l25 6.6 17.8-16.5-11.3-39.3-23.6 2.9-20 6.7z" class="st9"/></g><g id="Group-80" transform="translate(35.629 1.484)"><g id="Group-31"><defs><filter id="Adobe_OpacityMaskFilter" width="126.5" height="130.5" x="128" y="237.2" filterUnits="userSpaceOnUse"><feColorMatrix values="1 0 0 0 0  0 1 0 0 0  0 0 1 0 0  0 0 0 1 0"/></filter></defs><mask id="mask-2_2_" width="126.5" height="130.5" x="128" y="237.2" maskUnits="userSpaceOnUse"><g class="st13"><path id="path-1_2_" d="M185.5 276.2l-23 8.2 11.7 40.3 26.5 5.3 16.7-15.9-12.2-37.9z" class="st14"/></g></mask><path id="Fill-29" d="M171.3 237.2l83.1 46.8-43.3 83.7-83.1-46.8z" class="st15"/></g><g id="Group-34"><defs><filter id="Adobe_OpacityMaskFilter_1_" width="129.1" height="133.3" x="126.6" y="235.8" filterUnits="userSpaceOnUse"><feColorMatrix values="1 0 0 0 0  0 1 0 0 0  0 0 1 0 0  0 0 0 1 0"/></filter></defs><mask id="mask-4_2_" width="129.1" height="133.3" x="126.6" y="235.8" maskUnits="userSpaceOnUse"><g class="st16"><path id="path-3_2_" d="M185.5 276.2l-23 8.2 11.7 40.3 26.5 5.3 16.7-15.9-12.2-37.9z" class="st14"/></g></mask><path id="Stroke-32" d="M171.3 237.2l83.1 46.8-43.3 83.7-83.1-46.8z" class="st17"/></g><g id="Group-37"><defs><filter id="Adobe_OpacityMaskFilter_2_" width="1.1" height="1.8" x="190.8" y="275.1" filterUnits="userSpaceOnUse"><feColorMatrix values="1 0 0 0 0  0 1 0 0 0  0 0 1 0 0  0 0 0 1 0"/></filter></defs><mask id="mask-6_2_" width="1.1" height="1.8" x="190.8" y="275.1" maskUnits="userSpaceOnUse"><g class="st18"><path id="path-5_2_" d="M185.5 276.2l-23 8.2 11.7 40.3 26.5 5.3 16.7-15.9-12.2-37.9" class="st14"/></g></mask><path id="Stroke-35" d="M191.3 276" class="st19"/></g><g id="Group-40"><defs><filter id="Adobe_OpacityMaskFilter_3_" width="115.4" height="119.1" x="134" y="242.8" filterUnits="userSpaceOnUse"><feColorMatrix values="1 0 0 0 0  0 1 0 0 0  0 0 1 0 0  0 0 0 1 0"/></filter></defs><mask id="mask-8_2_" width="115.4" height="119.1" x="134" y="242.8" maskUnits="userSpaceOnUse"><g class="st20"><path id="path-7_2_" d="M185.5 276.2l-23 8.2 11.7 40.3 26.5 5.3 16.7-15.9-12.2-37.9z" class="st14"/></g></mask><path id="Fill-38_1_" d="M140 316.5l67.1 39.2 36.4-67.6-67.1-39.1-36.4 67.5zm68.8 45.4L134 318.2l40.6-75.4 74.8 43.7-40.6 75.4z" class="st21"/></g><g id="Group-43"><defs><filter id="Adobe_OpacityMaskFilter_4_" width="118" height="121.9" x="132.7" y="241.4" filterUnits="userSpaceOnUse"><feColorMatrix values="1 0 0 0 0  0 1 0 0 0  0 0 1 0 0  0 0 0 1 0"/></filter></defs><mask id="mask-10_2_" width="118" height="121.9" x="132.7" y="241.4" maskUnits="userSpaceOnUse"><g class="st22"><path id="path-9_2_" d="M185.5 276.2l-23 8.2 11.7 40.3 26.5 5.3 16.7-15.9-12.2-37.9z" class="st14"/></g></mask><path id="Stroke-41" d="M140 316.5l67.1 39.2 36.4-67.6-67.1-39.1-36.4 67.5zm68.8 45.4L134 318.2l40.6-75.4 74.8 43.7-40.6 75.4z" class="st23"/></g><g id="Group-46"><defs><filter id="Adobe_OpacityMaskFilter_5_" width="91.5" height="94.5" x="146" y="255.1" filterUnits="userSpaceOnUse"><feColorMatrix values="1 0 0 0 0  0 1 0 0 0  0 0 1 0 0  0 0 0 1 0"/></filter></defs><mask id="mask-12_2_" width="91.5" height="94.5" x="146" y="255.1" maskUnits="userSpaceOnUse"><g class="st24"><path id="path-11_2_" d="M185.5 276.2l-23 8.2 11.7 40.3 26.5 5.3 16.7-15.9-12.2-37.9z" class="st14"/></g></mask><path id="Fill-44_1_" d="M152 313.2l51.6 30.2 28-52-51.6-30.1-28 51.9zm53.3 36.4L146 314.9l32.2-59.8 59.3 34.7-32.2 59.8z" class="st25"/></g><g id="Group-49"><defs><filter id="Adobe_OpacityMaskFilter_6_" width="94.2" height="97.2" x="144.6" y="253.7" filterUnits="userSpaceOnUse"><feColorMatrix values="1 0 0 0 0  0 1 0 0 0  0 0 1 0 0  0 0 0 1 0"/></filter></defs><mask id="mask-14_2_" width="94.2" height="97.2" x="144.6" y="253.7" maskUnits="userSpaceOnUse"><g class="st26"><path id="path-13_2_" d="M185.5 276.2l-23 8.2 11.7 40.3 26.5 5.3 16.7-15.9-12.2-37.9z" class="st14"/></g></mask><path id="Stroke-47" d="M152 313.2l51.6 30.2 28-52-51.6-30.1-28 51.9zm53.3 36.4L146 314.9l32.2-59.8 59.3 34.7-32.2 59.8z" class="st27"/></g><g id="Group-52"><defs><filter id="Adobe_OpacityMaskFilter_7_" width="67.5" height="69.7" x="158" y="267.5" filterUnits="userSpaceOnUse"><feColorMatrix values="1 0 0 0 0  0 1 0 0 0  0 0 1 0 0  0 0 0 1 0"/></filter></defs><mask id="mask-16_2_" width="67.5" height="69.7" x="158" y="267.5" maskUnits="userSpaceOnUse"><g class="st28"><path id="path-15_2_" d="M185.5 276.2l-23 8.2 11.7 40.3 26.5 5.3 16.7-15.9-12.2-37.9z" class="st14"/></g></mask><path id="Fill-50_1_" d="M164 310l36 21.1 19.6-36.3-36.1-21L164 310zm37.8 27.3L158 311.6l23.7-44.1 43.8 25.6-23.7 44.2z" class="st29"/></g><g id="Group-55"><defs><filter id="Adobe_OpacityMaskFilter_8_" width="70.2" height="72.5" x="156.6" y="266.1" filterUnits="userSpaceOnUse"><feColorMatrix values="1 0 0 0 0  0 1 0 0 0  0 0 1 0 0  0 0 0 1 0"/></filter></defs><mask id="mask-18_2_" width="70.2" height="72.5" x="156.6" y="266.1" maskUnits="userSpaceOnUse"><g class="st30"><path id="path-17_2_" d="M185.5 276.2l-23 8.2 11.7 40.3 26.5 5.3 16.7-15.9-12.2-37.9z" class="st14"/></g></mask><path id="Stroke-53" d="M164 310l36 21.1 19.6-36.3-36.1-21L164 310zm37.8 27.3L158 311.6l23.7-44.1 43.8 25.6-23.7 44.2z" class="st31"/></g><g id="Group-58"><defs><filter id="Adobe_OpacityMaskFilter_9_" width="43.6" height="45" x="169.9" y="279.9" filterUnits="userSpaceOnUse"><feColorMatrix values="1 0 0 0 0  0 1 0 0 0  0 0 1 0 0  0 0 0 1 0"/></filter></defs><mask id="mask-20_2_" width="43.6" height="45" x="169.9" y="279.9" maskUnits="userSpaceOnUse"><g class="st32"><path id="path-19_2_" d="M185.5 276.2l-23 8.2 11.7 40.3 26.5 5.3 16.7-15.9-12.2-37.9z" class="st14"/></g></mask><path id="Fill-56_1_" d="M175.9 306.8l20.5 12 11.1-20.7L187 286l-11.1 20.8zm22.3 18.1l-28.3-16.5 15.3-28.5 28.3 16.5-15.3 28.5z" class="st33"/></g><g id="Group-61"><defs><filter id="Adobe_OpacityMaskFilter_10_" width="46.3" height="47.8" x="168.6" y="278.5" filterUnits="userSpaceOnUse"><feColorMatrix values="1 0 0 0 0  0 1 0 0 0  0 0 1 0 0  0 0 0 1 0"/></filter></defs><mask id="mask-22_2_" width="46.3" height="47.8" x="168.6" y="278.5" maskUnits="userSpaceOnUse"><g class="st34"><path id="path-21_2_" d="M185.5 276.2l-23 8.2 11.7 40.3 26.5 5.3 16.7-15.9-12.2-37.9z" class="st14"/></g></mask><path id="Stroke-59" d="M175.9 306.8l20.5 12 11.1-20.7L187 286l-11.1 20.8zm22.3 18.1l-28.3-16.5 15.3-28.5 28.3 16.5-15.3 28.5z" class="st35"/></g><g id="Group-64"><defs><filter id="Adobe_OpacityMaskFilter_11_" width="19.8" height="20.4" x="181.9" y="292.2" filterUnits="userSpaceOnUse"><feColorMatrix values="1 0 0 0 0  0 1 0 0 0  0 0 1 0 0  0 0 0 1 0"/></filter></defs><mask id="mask-24_2_" width="19.8" height="20.4" x="181.9" y="292.2" maskUnits="userSpaceOnUse"><g class="st36"><path id="path-23_2_" d="M185.5 276.2l-23 8.2 11.7 40.3 26.5 5.3 16.7-15.9-12.2-37.9z" class="st14"/></g></mask><path id="Fill-62_1_" d="M187.9 303.5l5.1 3 2.7-5.1-5.1-3-2.7 5.1zm6.8 9.1l-12.8-7.5 6.9-12.9 12.8 7.5-6.9 12.9z" class="st37"/></g><g id="Group-67"><defs><filter id="Adobe_OpacityMaskFilter_12_" width="22.4" height="23.2" x="180.6" y="290.8" filterUnits="userSpaceOnUse"><feColorMatrix values="1 0 0 0 0  0 1 0 0 0  0 0 1 0 0  0 0 0 1 0"/></filter></defs><mask id="mask-26_2_" width="22.4" height="23.2" x="180.6" y="290.8" maskUnits="userSpaceOnUse"><g class="st38"><path id="path-25_2_" d="M185.5 276.2l-23 8.2 11.7 40.3 26.5 5.3 16.7-15.9-12.2-37.9z" class="st14"/></g></mask><path id="Stroke-65" d="M187.9 303.5l5.1 3 2.7-5.1-5.1-3-2.7 5.1zm6.8 9.1l-12.8-7.5 6.9-12.9 12.8 7.5-6.9 12.9z" class="st39"/></g><g id="Group-73"><defs><filter id="Adobe_OpacityMaskFilter_13_" width="0" height="0" x="161.8" y="275.5" filterUnits="userSpaceOnUse"><feColorMatrix values="1 0 0 0 0  0 1 0 0 0  0 0 1 0 0  0 0 0 1 0"/></filter></defs><mask id="mask-30_2_" width="0" height="0" x="161.8" y="275.5" maskUnits="userSpaceOnUse"><g class="st40"><path id="path-29_2_" d="M185.5 276.2l-23 8.2 11.7 40.3 26.5 5.3 16.7-15.9-12.2-37.9z" class="st14"/></g></mask></g><g id="Group-79"><defs><filter id="Adobe_OpacityMaskFilter_14_" width="0" height="0" x="161.8" y="275.5" filterUnits="userSpaceOnUse"><feColorMatrix values="1 0 0 0 0  0 1 0 0 0  0 0 1 0 0  0 0 0 1 0"/></filter></defs><mask id="mask-34_2_" width="0" height="0" x="161.8" y="275.5" maskUnits="userSpaceOnUse"><g class="st42"><path id="path-33_2_" d="M185.5 276.2l-23 8.2 11.7 40.3 26.5 5.3 16.7-15.9-12.2-37.9z" class="st14"/></g></mask></g></g><g id="Group-143" transform="translate(0 .726)"><path id="Stroke-81" d="M209.8 325.5l26.5 5.3 16.7-15.9-12.1-37.9h-19.7l-23.1 8.2z" class="st9"/><path id="Fill-83" d="M209.4 324.8l25.8 6.6 17-15.8L240 278l-18.1.7-23.4 6.2-.2.5c-.1.1 11.1 39.4 11.1 39.4zm27.7 9l-29.3-7.3-12.3-42.7 25.5-7.3 20.5-1 13.8 40.8-18.2 17.5z" class="st44"/><path id="Stroke-95" d="M209.4 324.8l25.8 6.6 17-15.8L240 278l-18.1.7-23.4 6.2-.2.5c-.1.1 11.1 39.4 11.1 39.4zm27.7 9l-29.3-7.3-12.3-42.7 25.5-7.3 20.5-1 13.8 40.8-18.2 17.5zm-75.3-58.3" class="st9"/><path id="Fill-97" d="M237.9 290.9c2.4 7.6-.2 15.7-6.9 18.8-7.3 3.4-16.9-.5-19.9-8.5-3.1-7.9 1-17.9 8.8-20.2 7.6-2.2 15.6 2.3 18 9.9" class="st14"/><path id="Fill-99" d="M236.2 291.9c2 6.6-.3 13.5-6.1 16.1-6.3 2.9-14.5-.6-17.1-7.4-2.6-6.8 1-15.3 7.7-17.2 6.6-1.9 13.4 1.9 15.5 8.5" class="st45"/><path id="Fill-101_1_" d="M234.5 292.8c1.7 5.5-.4 11.3-5.3 13.5-5.4 2.3-12.1-.6-14.2-6.3-2.1-5.7.9-12.7 6.5-14.3 5.5-1.6 11.3 1.6 13 7.1" class="st46"/><path id="Fill-103_1_" d="M232.8 293.8c1.4 4.4-.5 9.1-4.5 10.8-4.4 1.8-9.7-.6-11.3-5.2-1.7-4.6.8-10 5.3-11.4 4.5-1.3 9.1 1.3 10.5 5.8" class="st47"/><path id="Fill-105_1_" d="M231.1 294.7c1 3.4-.5 7-3.7 8.1-3.4 1.2-7.2-.6-8.4-4.1-1.2-3.5.7-7.4 4.1-8.4 3.4-.9 7 1 8 4.4" class="st48"/><path id="Fill-107_1_" d="M229.5 295.7c.7 2.3-.6 4.8-3 5.5-2.4.7-4.8-.6-5.6-3-.7-2.3.6-4.8 3-5.5 2.4-.7 4.8.6 5.6 3" class="st49"/><path id="Fill-109_1_" d="M216 297.2c-1.7-2.1-2.1-4.9-1.2-7.1v.1c.2.7 1 1 1.6.8.6-.2 1-.9.7-1.6-.2-.7-1-1-1.6-.8-.3.1-.5.3-.6.5-.1.1-.2.2-.3.2-2.7 2.4-3 6.7-.6 9.6 2.4 2.9 6.6 3.4 9.3 1.1.4-.3.7-.7 1-1.1-2.7 1.5-6.2.9-8.3-1.7" class="st44"/><path id="Stroke-111" d="M216 297.2c-1.7-2.1-2.1-4.9-1.2-7.1v.1c.2.7 1 1 1.6.8.6-.2 1-.9.7-1.6-.2-.7-1-1-1.6-.8-.3.1-.5.3-.6.5-.1.1-.2.2-.3.2-2.7 2.4-3 6.7-.6 9.6 2.4 2.9 6.6 3.4 9.3 1.1.4-.3.7-.7 1-1.1-2.7 1.5-6.2.9-8.3-1.7z" class="st50"/><path id="Fill-113" d="M233.2 290.9c0-2.4-1.3-4.5-3.2-5.6v.1c.2.6 0 1.2-.6 1.4-.5.2-1.2-.2-1.4-.8-.2-.6 0-1.2.6-1.4.2-.1.5-.1.7 0h.3c3.1.2 5.6 3.1 5.7 6.4.1 3.3-2.4 5.9-5.5 5.7-.4 0-.8-.1-1.2-.2 2.7-.3 4.6-2.6 4.6-5.6" class="st44"/><path id="Stroke-115" d="M233.2 290.9c0-2.4-1.3-4.5-3.2-5.6v.1c.2.6 0 1.2-.6 1.4-.5.2-1.2-.2-1.4-.8-.2-.6 0-1.2.6-1.4.2-.1.5-.1.7 0h.3c3.1.2 5.6 3.1 5.7 6.4.1 3.3-2.4 5.9-5.5 5.7-.4 0-.8-.1-1.2-.2 2.7-.3 4.6-2.6 4.6-5.6z" class="st50"/><path id="Fill-117" d="M226.1 298l-1.5.4-6.4-5.2 1.9-2.8 6.5-1.4 3 1.6z" class="st51"/><path id="Stroke-119" d="M226.1 298l-1.5.4-6.4-5.2 1.9-2.8 6.5-1.4 3 1.6z" class="st50"/><path id="Stroke-121" d="M221.6 290.1l-1 2.5 4.9 6.1 1.8-7.6-1.8-1.9" class="st50"/><path id="Fill-123_1_" d="M235.4 330.2c-1.3.4-2.7-.3-3.1-1.6l-8.3-27.1 4.7-1.4 8.3 27.1c.5 1.3-.3 2.6-1.6 3" class="st44"/><path id="Stroke-125" d="M235.4 330.2c-1.3.4-2.7-.3-3.1-1.6l-8.3-27.1 4.7-1.4 8.3 27.1c.5 1.3-.3 2.6-1.6 3z" class="st52"/><path id="Fill-127" d="M229.7 301.7l-4.4 1.6-4.3-2.4 1-2.1 7.5-2.6 2.1 1.1z" class="st44"/><path id="Stroke-129" d="M229.7 301.7l-4.4 1.6-4.3-2.4 1-2.1 7.5-2.6 2.1 1.1z" class="st50"/><path id="Fill-131" d="M229 301.6l-3.7 1.2c-.9.3-1.4 1.3-1.1 2.3.3 1 1.3 1.5 2.3 1.2l3.7-1.2c.9-.3 1.4-1.3 1.1-2.3-.3-1-1.3-1.5-2.3-1.2" class="st44"/><path id="Stroke-133" d="M229 301.6l-3.7 1.2c-.9.3-1.4 1.3-1.1 2.3.3 1 1.3 1.5 2.3 1.2l3.7-1.2c.9-.3 1.4-1.3 1.1-2.3-.3-1-1.3-1.5-2.3-1.2z" class="st50"/><path id="Stroke-135" d="M218.2 293.2l11.4-2.6" class="st50"/></g></g></g></g></g></svg>