<svg viewBox="0 0 414 373" xmlns="http://www.w3.org/2000/svg"><path fill="#fff" d="M0 0h414v373H0z"/><path fill="#febc37" d="M0 0h414v373H0z"/><path d="M209.8 244.2s-16.5-8.5-7.7-59.3S223 77.7 223 77.7l-41.9-57.5L98.5 13 67.4 46.5v98.2l10.8 67s8.4 55.1-7.2 69.4 23.9 63.5 23.9 63.5l102.9-10.8 39.5-59.9z" fill="#ffe1d4"/><path d="M69.7 144.6l10.7 66.9c.4 2.3 8.4 56.5-7.9 71.5-7.3 6.7 1 24.3 6.6 34.2a238.62 238.62 0 0 0 16.8 25.1l100.6-10.5 37.9-57.4-26.1-28.4c-2.7-1.8-16.8-13.5-8.4-61.5 8.1-46.6 19-98.3 20.6-106.1l-40.7-55.8-80.4-7-29.7 32zM94.9 347a2.14 2.14 0 0 1-1.8-.9 219.59 219.59 0 0 1-18-26.7c-11.1-19.7-13-33.2-5.7-39.9 5.9-5.4 8.9-18.7 8.7-38.4a229.9 229.9 0 0 0-2.2-29l-10.8-67V46.6a2.45 2.45 0 0 1 .6-1.6l31.1-33.5a2.28 2.28 0 0 1 1.9-.7l82.6 7.2a2.59 2.59 0 0 1 1.7.9l41.9 57.5a2.32 2.32 0 0 1 .4 1.8c-.1.6-12.1 56.8-20.8 107-8.3 47.9 6.3 56.8 6.5 56.9a2.65 2.65 0 0 1 .6.5l27.5 29.9a2.26 2.26 0 0 1 .2 2.8l-39.5 59.9a2.06 2.06 0 0 1-1.7 1L95.2 347z" fill="#131841"/><path d="M147 208.8s-27.1 4.8-37.1-2.4c-8.4-6-16.8-21.5-2.4-25.1s30.1-7.9 50.3 3.6c8.3 4.8-2.4 21.5-10.8 23.9m-49.1-29.9c-8.4 25.1-25.1-11-25.1-1.2 0 22.7 27.5 53.9 26.3 58.7s8.9 28.5 24.1 33.4c16.5 5.4 44.1-26.3 44.1-32.3s18.4-19.5 22.7-28.7c41.9-88.6-9.6 1.2-21.5-25.1-5.3-11.8-65.6-19.6-70.6-4.8z" fill="#e0cbc6"/><path d="M214.6 128s14.4-10.8 22.7-4.8 1.2 26.3 0 29.9-10.8 21.5-23.9 31.1c-3.1 2.2-14.2.3-12.5-2.3" fill="#ffe1d4"/><path d="M208.8 187.5c-3.7 0-7.7-1-9.3-2.6a3.36 3.36 0 0 1-.5-4.3 2.37 2.37 0 0 1 3.2-.6 2.23 2.23 0 0 1 1 1.8c2 .9 7.5 1.4 8.8.5 12.8-9.3 22.1-26.9 23.1-30l.1-.4c4.7-14.1 5-23.9.7-26.9-5.7-4.1-16.4 2-20 4.8a2.29 2.29 0 1 1-2.7-3.7c.6-.5 15.8-11.7 25.5-4.8 6.3 4.5 6.6 15.3 1 32.2l-.1.4c-1.3 3.8-11.1 22.3-24.8 32.3a11.61 11.61 0 0 1-6 1.3" fill="#131841"/><path d="M158.4 236.9a2.45 2.45 0 0 1-2.1-1.3 2.33 2.33 0 0 1 1-3.1c7.7-3.8 28-19 31.2-27.5 1-2.7 2.7-7.1 4.6-12.2 4.9-12.9 11.6-30.5 13.3-35.6 1.9-5.7 5.7-44.8 7.1-59.3a2.31 2.31 0 0 1 4.6.4c-.2 2.2-4.8 53-7.3 60.4-1.7 5.2-8.5 22.9-13.4 35.8-1.9 5.1-3.6 9.5-4.6 12.1-3.9 10.5-26.6 26.6-33.4 30a1.93 1.93 0 0 1-1 .3" fill="#131841"/><path d="M67.4 106.5s-10.8-4.8-14.4 9.6 2.4 29.9 3.6 34.7 3.6 23.9 13.2 23.9" fill="#ffe1d4"/><path d="M69.8 177c-10.2 0-13.3-15.7-14.9-23.2-.2-1-.4-1.9-.5-2.5s-.4-1.6-.8-2.7c-2-6.6-6-20.3-2.8-33.2 1.4-5.5 3.9-9.2 7.6-11a12.68 12.68 0 0 1 10-.2 2.285 2.285 0 1 1-1.8 4.2 8.38 8.38 0 0 0-6.1.1c-2.3 1.2-4 3.8-5.1 7.9-2.9 11.7.9 24.6 2.8 30.8.3 1.2.6 2.1.8 2.8s.4 1.6.6 2.7c1.2 5.8 3.9 19.5 10.3 19.5a2.26 2.26 0 0 1 2.3 2.3 2.52 2.52 0 0 1-2.4 2.5" fill="#131841"/><path d="M124.3 242.3h-.2c-14.7-1.3-35.2-14.1-46.1-36-8.1-16.2-8.3-24.6-8.8-42.9-.2-6.6-.4-14.7-1-25-2.4-38.2 9.5-89.9 9.6-90.5a2.32 2.32 0 0 1 4.5 1.1c-.1.5-11.9 51.6-9.5 89.1.6 10.4.9 18.6 1 25.2.5 18.2.7 25.7 8.3 41 10.1 20.1 29.4 32.3 42.4 33.5a2.27 2.27 0 0 1 2.1 2.5 2.36 2.36 0 0 1-2.3 2" fill="#131841"/><path d="M98.5 39.4S74.6 58.6 74.6 77.7 66.2 134 66.2 134s-4.8-18-4.8-22.7v14.4s-10.8-12-8.4-27.5 9.6-67 34.7-81.4 10.8 22.6 10.8 22.6" fill="#d1a17d"/><path d="M63.7 111.3c0 2.1 1.1 7.4 2.3 12.5 2.5-12.3 6.3-33.3 6.3-46C72.3 59 93 41 96.6 38c2.8-7.5 5.4-19.2 2.4-21.8-1.5-1.3-5.1-.4-10.1 2.4C65.5 32.1 58 81 55.6 97l-.2 1.4c-1.2 7.9 1.3 14.9 3.8 19.6v-6.8a2.25 2.25 0 1 1 4.5.1zm2.5 25a2.25 2.25 0 0 1-2.2-1.7c-.2-.7-.9-3.4-1.7-6.8a2.31 2.31 0 0 1-2.5-.6c-.5-.5-11.5-13-8.9-29.4l.2-1.4C53.9 78 61.3 29.3 86.7 14.8c7.1-4.1 12.1-4.7 15.3-1.9 6.7 5.8.1 23.9-1.3 27.5a2.29 2.29 0 0 1-.7 1c-.2.2-23.1 18.7-23.1 36.5 0 19.2-8.1 55.2-8.4 56.8a2.41 2.41 0 0 1-2.3 1.6z" fill="#131841"/><path d="M215.8 20.3l4.8-8.4-14.4 3.6s.6-7.2-7.2-13.8H97.9C74.2 12.7 64 27.4 66.3 25.1c3.6-3.6 20.3 0 20.3 0-10.8 0-22.7 16.8-19.1 14.4s13.2 0 22.7 0 79 9.6 79 9.6l-10.8 9.6c8.4-1.2 17.9-4.8 23.9-4.8s19.1 4.8 19.1 4.8c10.8 3.6 4.8 91 9.6 86.2s14.4-29.9 14.4-29.9c0 4.8 13.2 8.4 13.2 8.4-2.4-4.8-1.2-32.3 0-46.7s-3.6-31.1-7.2-37.1c-3.6-6.2-15.6-19.3-15.6-19.3z" fill="#d1a17d"/><path d="M218.6 20l4-6.9a2.11 2.11 0 0 0-.2-2.5 2.24 2.24 0 0 0-2.4-.8l-11.7 2.9a21.23 21.23 0 0 0-5.5-10.5 1 1 0 0 0-.5-.4h-7.1a24.66 24.66 0 0 1 4.1 3.4c4.9 5.2 4.6 10 4.6 10.2a2.34 2.34 0 0 0 2.9 2.5l9.1-2.3-2.1 3.7a2.25 2.25 0 0 0 .3 2.7c.1.1 11.9 13.1 15.3 18.8 3.1 5.2 8 21.5 6.9 35.7 0 .4-2.5 30.7-.8 43.4-4.3-1.6-7.7-3.7-7.7-4.9a2.34 2.34 0 0 0-4.5-.9c-3 8-8 19.9-11.6 25.9-.4-5.1-.6-14.3-.7-22.7-.6-40.2-2-58.5-8.8-60.8-.8-.3-13.7-4.9-19.9-4.9-3.6 0-8.3 1.2-13.2 2.4-.9.2-1.8.5-2.8.7l4.4-3.9a2.38 2.38 0 0 0 .7-2.4 2.25 2.25 0 0 0-1.9-1.6c-2.8-.4-69.7-9.6-79.3-9.6-3.3 0-6.7-.3-9.9-.6s-5.9-.5-8.3-.5c3.5-3.8 9.4-8.7 14.6-8.7a2.29 2.29 0 0 0 2.3-2.1 2.39 2.39 0 0 0-1.8-2.5 61.64 61.64 0 0 0-14.4-1.6A91.89 91.89 0 0 1 88.9 9a108.68 108.68 0 0 1 14.9-7.4H95c-.7 0-1.4-.1-2.1-.1-2.8 1.4-5.3 2.9-7.6 4.3-13 8-21.1 17-21.6 18.9a2.29 2.29 0 0 0 1.1 2.6 2.49 2.49 0 0 0 3.1-.6c1-1 4.7-1.1 9.1-.7-6.4 4-11.5 10.4-12.3 12.6a2.59 2.59 0 0 0 .8 3 2.77 2.77 0 0 0 3.3-.1c1.6-1.1 6.5-.6 11.2-.2 3.2.3 6.7.6 10.3.6 7.8 0 57.7 6.7 73.7 8.9l-7 6.3a2.33 2.33 0 0 0-.6 2.7 2.22 2.22 0 0 0 2.4 1.3 94.58 94.58 0 0 0 11.5-2.5c4.6-1.2 9-2.3 12.1-2.3 4.6 0 14.8 3.4 18.4 4.7h.1c.1 0 2.8 1.2 4.3 19.1.9 11.3 1.1 25.2 1.3 37.5.4 25.7.7 28.7 3.3 29.8a3 3 0 0 0 1 .2 2.83 2.83 0 0 0 2-.9c3.9-3.9 10.2-18.9 13.2-26.5 3.6 3.1 9.7 4.9 12 5.6a2.43 2.43 0 0 0 2.4-.8 2.29 2.29 0 0 0 .3-2.5c-1.7-3.5-1.3-26.9.2-45.5 1.2-14.7-3.7-32.1-7.5-38.5-3.1-5.3-11.7-15.1-14.8-18.5z" fill="#131841"/><path d="M167.6 216.5c-.3 1.2-7.5 21.6-23.2 25.3" fill="#ffe1d4"/><path d="M144.4 244.1a2.24 2.24 0 0 1-2.2-1.8 2.37 2.37 0 0 1 1.7-2.8c14.6-3.5 21.4-23.4 21.5-23.6a2.37 2.37 0 0 1 2.8-1.7 2.27 2.27 0 0 1 1.7 2.7c-.1.2-7.4 22.9-24.9 27a.85.85 0 0 1-.6.2" fill="#131841"/><path d="M167.9 240.6l-27.5 52.7" fill="#ffe1d4"/><path d="M140.4 295.5a2.28 2.28 0 0 1-1.1-.3 2.33 2.33 0 0 1-1-3.1l27.5-52.7a2.303 2.303 0 0 1 4.1 2.1l-27.5 52.7a2.13 2.13 0 0 1-2 1.3" fill="#131841"/><path d="M80.6 252.5l1.2 43.1" fill="#ffe1d4"/><path d="M81.8 297.9a2.31 2.31 0 0 1-2.3-2.2l-1.2-43.1a2.4 2.4 0 0 1 2.2-2.4 2.33 2.33 0 0 1 2.4 2.2l1.2 43.1a2.35 2.35 0 0 1-2.3 2.4" fill="#131841"/><path d="M126.1 214.2a23.48 23.48 0 0 0 1.2 12" fill="#ffe1d4"/><path d="M127.3 228.5a2.17 2.17 0 0 1-2.1-1.4 25.35 25.35 0 0 1-1.3-13.3 2.295 2.295 0 1 1 4.5.9 21.66 21.66 0 0 0 1.1 10.7 2.28 2.28 0 0 1-1.3 3c-.4 0-.7.1-.9.1M147.7 170a2.24 2.24 0 0 1-2.2-1.8 2.37 2.37 0 0 1 1.7-2.8c2.2-.5 4.8-1.5 5.3-3.3.7-2.8-3.3-7.5-5.4-9.4a2.45 2.45 0 0 1-.2-3.3 2.33 2.33 0 0 1 3.2-.2c.9.8 8.4 7.7 6.8 13.9-.8 3.2-3.8 5.5-8.7 6.6a.54.54 0 0 1-.5.3" fill="#131841"/><path d="M129.7 111.3s6 4.8 4.8 9.6-4.8 29.9-4.8 29.9" fill="#ffe1d4"/><path d="M129.7 153.1h-.3a2.35 2.35 0 0 1-2-2.6c.1-1 3.6-25.3 4.8-30.2.7-2.7-2.7-6.2-4-7.2a2.28 2.28 0 0 1 2.8-3.6c.7.6 7.1 5.9 5.6 11.9-1.2 4.6-4.7 29.4-4.7 29.7a2.26 2.26 0 0 1-2.2 2" fill="#131841"/><path d="M130.8 174.7a8.31 8.31 0 0 1 0 6" fill="#ffe1d4"/><path d="M130.8 183a1.7 1.7 0 0 1-.7-.1 2.32 2.32 0 0 1-1.5-2.9 6.14 6.14 0 0 0 .1-4.3 2.33 2.33 0 0 1 1-3.1 2.28 2.28 0 0 1 3.1 1.1 10 10 0 0 1 .1 7.7 2.05 2.05 0 0 1-2.1 1.6M120.1 120.8a2.25 2.25 0 0 1-2.2-1.6c-.1-.3-2.1-5.6-9.8-5.6-8.7 0-17.7 6.7-17.8 6.7a2.29 2.29 0 1 1-2.7-3.7c.4-.3 10.3-7.6 20.5-7.6 11.1 0 14 8.4 14.2 8.8a2.24 2.24 0 0 1-1.5 2.9c-.2 0-.5.1-.7.1M190.7 127.9h-.3c-5.5-.7-9.3-3.2-12.6-5.4-2.9-2-5.5-3.7-9-4.2-7.1-1-12.4 4.1-12.4 4.1a2.35 2.35 0 0 1-3.3 0 2.23 2.23 0 0 1 0-3.2c.3-.3 6.9-6.8 16.3-5.4 4.5.6 7.8 2.8 10.9 4.9s6.2 4.1 10.6 4.7a2.28 2.28 0 0 1 2 2.6 2.17 2.17 0 0 1-2.2 1.9" fill="#131841"/><path d="M113.5 115.7a6 6 0 1 1-6-6 6 6 0 0 1 6 6M176.6 120.5a6 6 0 1 1-6-6 6 6 0 0 1 6 6M131.1 171c-6.5 0-10.4-5.5-10.5-5.7a2.302 2.302 0 0 1 3.8-2.6s2.7 3.7 6.7 3.7c1.8 0 4.9-2.4 6.5-4a2.335 2.335 0 1 1 3.4 3.2c-.7.5-5.5 5.4-9.9 5.4" fill="#131841"/><path d="M120.9 95.9s-2.9 3.2-8.6 1.2-11.5-12.6-29.1.6c0 0 8.3-15.7 21.4-13.8s21.7 7.9 16.3 12" fill="#d1a17d"/><path d="M98.5 88.8c5 0 8.5 2.3 11.3 4.2a24 24 0 0 0 3.2 1.9c4.2 1.5 6.1-.5 6.1-.5l.3-.3c.8-.6.7-.9.7-1-.5-2-6.5-5.6-16-7-4.5-.7-8.5 1.2-11.6 3.7a20.79 20.79 0 0 1 6-1m17.4 11.2a12.47 12.47 0 0 1-4.4-.8 18.57 18.57 0 0 1-4.3-2.4c-4.7-3.2-10.1-6.7-22.7 2.7a2.4 2.4 0 0 1-2.9-.1 2.3 2.3 0 0 1-.5-2.8c.4-.7 9.3-17.1 23.7-15 8.9 1.3 18.5 5 19.8 10.4.3 1.2.4 3.6-2.3 5.7a8.83 8.83 0 0 1-6.4 2.3" fill="#131841"/><path d="M154.5 95.9s.3 3.6 5.1 4.4 24.8-5.5 31.5 3.5c.1.1-12.4-20.6-36.6-7.9" fill="#d1a17d"/><path d="M157.6 97a4.86 4.86 0 0 0 2.5 1.1c1 .2 3.6-.2 6.2-.5a75 75 0 0 1 13.8-.9c-5.3-2.8-12.8-4.2-22.5.3zm33.6 9.2a2.46 2.46 0 0 1-1.9-.9c-4.1-5.5-15.1-4.1-22.5-3.1-3.4.4-5.9.8-7.6.5-5.2-.9-6.9-4.5-7.1-6.5a2.23 2.23 0 0 1 1.2-2.2c20.7-10.8 35 1 39.7 8.8a2.35 2.35 0 0 1-.7 3.1 3.54 3.54 0 0 1-1.1.3zM135.9 189.8l-5.1 1.4a2.4 2.4 0 0 1-2.8-.3 21.61 21.61 0 0 1-4.1-1.5c-1.8-.3-10 3.1-17.4 1-1.2-.4-2.3-.4-2.7-1.6s-.6-3.1 1.4-2.8c11.6 1.7 18.6-1.8 20.7-.7 1.5.8 3 .3 4 1.2l4.5-1.1a2.33 2.33 0 0 1 2-.2 36.77 36.77 0 0 0 23.2 2.1c.9-.2 2.1 1.3 2 2.6a2.36 2.36 0 0 1-2.3 2c-9.4 1.6-17.2 1-23.4-2.1z" fill="#131841"/><path d="M123.7 199.9s3.6 2.4 12 0" fill="#ffe1d4"/><path d="M119.2 199.5c-1.6-.7-2-2.1-.9-3.2a4.81 4.81 0 0 1 4.7-.7c.2.1 5 3.9 15-.3 1.2-.5 3.7.4 4.2 1.6s-1.2 2.3-2.3 2.8c-4.6 2.1-4.8 2.1-10.4 2.4a19.24 19.24 0 0 1-10.3-2.6z" fill="#131841"/><path d="M231.4 131.6a38 38 0 0 1-10.8 32.3" fill="#ffe1d4"/><path d="M220.6 166.2a2 2 0 0 1-1.6-.7 2.35 2.35 0 0 1 0-3.3c13.3-13.3 10.3-29.6 10.1-30.2a2.295 2.295 0 1 1 4.5-.9 39.83 39.83 0 0 1-11.4 34.4 2 2 0 0 1-1.6.7M117.1 169.6a9.22 9.22 0 0 1-3.6-.7 7.1 7.1 0 0 1-4-5.2c-2.2-9 7.2-14.3 7.6-14.6a2.283 2.283 0 1 1 2.2 4c-.3.2-6.7 3.9-5.3 9.4.4 1.5 1 1.9 1.5 2.1 1.8.8 5-.2 6.3-.9a2.303 2.303 0 1 1 2.1 4.1 14 14 0 0 1-6.8 1.8" fill="#131841"/><path d="M2.3 371.3h397.9c-6.1-27-12.4-45.1-18.7-47-10.1-3-65.1-31.6-65.1-31.6L2.3 305.8v65.5z" fill="#32375c"/><path d="M382.2 322.1c-9.8-2.9-64.2-31.2-64.8-31.4a2.66 2.66 0 0 0-1.2-.3l-314 13.1v6l.2-1.4L315.8 295c6.1 3.2 55.2 28.5 65 31.5 2.8.9 8.7 8 16.9 44.8h4.7c-5-23-11.7-46.6-20.2-49.2z" fill="#131841"/><path fill="#32375c" d="M2.3 310v45.1l5.6-32.8L2.3 310z"/><path d="M10 321.4L2.5 305c-.1-.1-.2-.3-.3-.4v10.9l3.3 7.1-3.3 18.9v27.1l7.9-45.9a1.5 1.5 0 0 0-.1-1.3z" fill="#131841"/><path fill="#fff" d="M198.3 371.3l34.6-102.6L111.3 312l-50.7-24-6.5 83.3h144.2z"/><path d="M88.7 348.7c-2.1 7.4-5.3 14.8-11.2 19.6 1.5-18.1-5.4-35.8-6.1-53.9a81.1 81.1 0 0 1 8.2-38.7c.2 4.7 3.3 8.9 7.1 11.8 7.3 5.5 32.5 12.1 24.4 23.9-3.4 4.9-9.7 7.6-13.3 12.6-5.1 7.3-6.6 16.4-9.1 24.7" fill="#fefefe"/><path d="M79.1 282.4a77.2 77.2 0 0 0-5.4 31.9c.3 7.5 1.7 15.1 3.1 22.5 1.5 8.3 3.1 16.9 3.2 25.5 3.3-4.4 5.2-9.8 6.5-14.3l1.5-5.4c1.8-6.8 3.7-13.9 7.9-19.9a33.09 33.09 0 0 1 7.2-6.8c2.4-1.9 4.6-3.6 6.1-5.8a4.76 4.76 0 0 0 1-4.3c-1.2-4.5-9.4-8.4-16-11.6a57.09 57.09 0 0 1-8.9-4.9 20.24 20.24 0 0 1-6.2-6.9m-1.6 88.2a2.28 2.28 0 0 1-1.1-.3 2.23 2.23 0 0 1-1.2-2.2c.8-10.1-1-20-2.9-30.4-1.4-7.5-2.9-15.3-3.2-23.2a81.86 81.86 0 0 1 8.4-39.8 2.22 2.22 0 0 1 2.5-1.2 2.26 2.26 0 0 1 1.8 2.2c.1 3.5 2.4 7.2 6.2 10.1a57.83 57.83 0 0 0 8.2 4.4c7.8 3.8 16.7 8.1 18.5 14.6a9.77 9.77 0 0 1-1.7 8.1c-1.9 2.8-4.5 4.8-7.1 6.8-2.4 1.9-4.7 3.6-6.2 5.8-3.8 5.3-5.5 12-7.2 18.4-.5 1.8-1 3.7-1.5 5.5-2 6.8-5.1 15.3-12 20.8a2.82 2.82 0 0 1-1.5.4" fill="#131841"/><path d="M121.3 371.3c.9-20.5 1.7-31.7 1.7-31.7H94.7c-4 7.8-7.7 18.8-11 31.7z" fill="#f05b29"/><path d="M86.1 371.3c3-11.8 6.4-21.9 10-29.4h24.4c-.3 4.4-.9 14.4-1.5 29.4h4.6c.8-20.1 1.6-31.2 1.6-31.5l.2-2.5H93.2l-.6 1.2c-4.2 8.1-7.9 19.5-11.3 32.7h4.8z" fill="#131841"/><path d="M56.8 278.5c-12.2 3.7-46.3 22-54.6 26.4v32.3c6.4-2 13.3-5.2 19-6.4 10.6-2.2 18-8.3 30.5-6.9 0 0-20.8 8.3-36 13.9-4.8 1.7-9.3 3.3-13.4 4.7v28.9h66.4c3.2-49.5 7.9-95.5 10.8-104.2a77.19 77.19 0 0 1-22.7 11.3z" fill="#32375c"/><path d="M54 323.7a2.33 2.33 0 0 0-2-2c-1.3-.1-2.6-.2-3.9-.2-6.8 0-12.2 2-17.4 4a76.38 76.38 0 0 1-9.9 3.2A94.2 94.2 0 0 0 9 332.5c-2.2.8-4.5 1.7-6.7 2.4v4.8c2.7-.8 5.5-1.9 8.3-2.9a87 87 0 0 1 11-3.6c-2.3.9-4.6 1.7-6.8 2.5-4.5 1.6-8.6 3-12.6 4.4v4.9a4.88 4.88 0 0 0 1.1-.4c3.9-1.3 8.4-2.8 13.1-4.6 15.1-5.5 35.9-13.8 36.1-13.9a2.37 2.37 0 0 0 1.5-2.4z" fill="#131841"/><path d="M80.7 265.2a2.41 2.41 0 0 0-2.8.1 71.25 71.25 0 0 1-21.8 11c-12 3.7-44 20.7-53.9 26v5.2c5.6-3 42.7-23 55.2-26.8a83.53 83.53 0 0 0 18.4-8.3c-2.9 16.2-6.9 56.4-9.6 99h4.7c3.2-49.4 7.9-95.4 10.6-103.5a2.2 2.2 0 0 0-.8-2.7z" fill="#131841"/><path d="M94.7 339.7a74 74 0 0 0 11.6 3.9c6.4 1.3 15.3-1.1 16.7-3.9s14.7-24 11.9-28.2-22.2-12.5-26.3-9.7-18.1 25.4-13.9 37.9" fill="#f05b29"/><path d="M96.6 338a66.55 66.55 0 0 0 10.1 3.3c6 1.2 13.4-1.3 14.2-2.6.3-.5.8-1.5 1.6-2.9 9.9-17.1 10.8-21.8 10.4-23-2.6-3.7-20.4-10.6-23.1-9-3.5 2.2-16 22.8-13.2 34.2m13.5 8.2a21.19 21.19 0 0 1-4.4-.4 73.85 73.85 0 0 1-12-4l-.9-.4-.3-1c-4.6-13.8 10.2-37.5 14.8-40.5 5.9-3.9 26.6 5.9 29.5 10.3 2.3 3.4-.4 10.7-10.2 27.8-.7 1.2-1.3 2.3-1.5 2.7-1.8 3.4-8.8 5.5-15 5.5" fill="#131841"/><path d="M112.7 304.6c0 8.3 34.6 55.5 32.6 63.1s61.9-120.6 63.1-124.1-7.2-26.1-7.2-23.2c0 6.9-2.8 21.2-10.8 28.8-6.1 11.8-77.7 47-77.7 55.4" fill="#fefefe"/><path d="M115 304.6c.1 3.4 8.3 16.8 14.9 27.6 8.6 14.1 14.1 23.4 16.4 29.4 4.2-7.8 13.4-25.4 29.3-57.2 16.2-32.2 29.5-59.3 30.4-61.6.1-.7-.3-3.9-2.6-10.9-.3-1-.7-2.1-1-3-1.4 7.4-4.6 16-10.4 21.6-3.5 6.1-18.8 15.7-41.6 29.5-14.4 8.9-34.3 21-35.4 24.6m30.4 65.7a2.2 2.2 0 0 1-.8-.1 2.3 2.3 0 0 1-1.5-3.1c.7-3.3-10.4-21.5-17-32.4-9.7-15.9-15.6-25.8-15.6-30.1 0-5 10.9-12.1 37.8-28.4 16.7-10.1 37.4-22.7 40.1-28.1a1.47 1.47 0 0 1 .5-.6c7.4-7 10.1-20.3 10.1-27.1a2.34 2.34 0 0 1 1.4-2.3 2.45 2.45 0 0 1 2.6.4c1.7 1.6 9.1 21.5 7.6 25.9-.7 2.1-17.2 35.4-31.6 64-6 11.9-14.5 28.8-21.4 42-3.1 6-5.5 10.6-7.2 13.7-2.7 4.6-3.6 6.2-5 6.2" fill="#131841"/><path fill="#131841" d="M192.3 371.3L231.5 258l-24.6-14.4-33.7 127.7h19.1z"/><path d="M175.6 371.3L208.3 247l20.4 12-38.9 112.3h4.9l39-112.6a2.25 2.25 0 0 0-1-2.7l-24.6-14.5a2 2 0 0 0-2-.1 2 2 0 0 0-1.3 1.5L171 371.3h4.6z" fill="#131841"/><path d="M289.9 371.3c-10.3-5.9-23.2-11.8-35.8-17.9-31.3-15.1-23.7-16.2-23.7-16.2 8.6-3.2 28 10.8 36.7 17.3s38.8 12.9 47.5 11.9 12.1-69.8 12.1-69.8-49.7-19.8-60.5-29.6-34.7-9-34.7-9c-.9 8.1-18.2 57.3-38.7 113.3z" fill="#32375c"/><path d="M195.2 371.3c19.2-52.2 35.5-98.5 38.2-111 5.7.1 22.9.9 31.2 8.4 10 9 50.9 25.9 59.6 29.4-.3 4.5-1.1 17.9-2.6 31.4-3.4 30.6-7 34.2-7.5 34.6-8.2.9-37.5-5.3-45.7-11.4-19.3-14.5-31.6-20.1-38.7-17.6a3.1 3.1 0 0 0-2.4 2.5c-.3 2-.8 5.1 25.8 17.9 2.7 1.3 5.5 2.6 8.2 3.9 8.2 3.9 16.6 7.9 23.9 11.9h9.3c-5.5-3.3-11.9-6.7-18.7-10 13 4.7 32.2 8.2 39 7.4 3.7-.5 7.7-5.3 11.3-37.3 1.9-17.2 2.8-34.5 2.8-34.6a2.44 2.44 0 0 0-1.4-2.3c-.5-.2-49.4-19.8-59.7-29.1-11.3-10.2-35.3-9.6-36.3-9.6a2.26 2.26 0 0 0-2.2 2c-.9 7.6-18.2 57.2-38.9 113.6h4.8zm68.1-16c-2.7-1.3-5.4-2.6-8.2-3.9-14.1-6.8-19.7-10.5-21.9-12.3h.1c4.3 0 13.3 3 32.3 17.3l.2.2c-.8-.5-1.7-.9-2.5-1.3z" fill="#131841"/><path d="M232 371.3a48 48 0 0 0-7.1-1.6l3.4 1.6z" fill="#32375c"/><path d="M239 371.3a58.77 58.77 0 0 0-13.8-3.9l-.6 3.9z" fill="#131841"/><path d="M309.9 287.6l-7.3 61.2s-18-1.3-27.7-8.2c-20.8-14.8-13.9-20.8-54.1-16.5" fill="#32375c"/><path d="M302.6 351.1h-.2c-.8-.1-18.8-1.5-28.9-8.6-4.9-3.5-8.4-6.6-11.2-9-8.9-7.8-11.5-10.2-41.3-7l-.5-4.6c31.8-3.4 35.4-.3 44.9 8.2a114.35 114.35 0 0 0 10.8 8.7c7.2 5.1 19.4 7 24.4 7.6l7-58.9 4.6.5-7.3 61.2a2.29 2.29 0 0 1-2.3 1.9" fill="#131841"/><path d="M230.5 337.8l-11.1 13.9 3.7 2.9z" fill="#32375c"/><path d="M246.6 371.3c-9.8-6.4-18.8-13.1-23.6-16.8l-7.4 16.8z" fill="#32375c"/><path d="M217.9 353.5c.9.7 11.5 9.2 24.5 17.9h8.4c-12.3-7.8-23.9-16.6-28.2-20l9.6-12-3.6-2.9-11.1 13.9a2.16 2.16 0 0 0-.5 1.7 2.43 2.43 0 0 0 .9 1.4z" fill="#131841"/><path d="M211.5 308.8l18.9 29.1" fill="#32375c"/><path fill="#131841" d="M228.5 339.1L209.6 310l3.8-2.5 19 29.1-3.9 2.5z"/><path d="M208.4 243.9s12.7-5.3 30.8 10.3c9 7.7 6.4 11.6 19.3 18" fill="#32375c"/><path d="M258.5 274.5a3.55 3.55 0 0 1-1-.2c-8.3-4.2-10.7-7.5-13.2-11a39.12 39.12 0 0 0-6.5-7.3c-16.9-14.5-28.3-10-28.5-9.9a2.285 2.285 0 0 1-1.8-4.2c.6-.2 14.2-5.6 33.2 10.7a44.19 44.19 0 0 1 7.3 8.1c2.4 3.3 4.3 5.9 11.5 9.6a2.33 2.33 0 0 1 1 3.1 2.27 2.27 0 0 1-2 1.1" fill="#131841"/><path d="M220 252s11.6 8.6 19.3 20.1" fill="#32375c"/><path d="M239.2 274.5a2.42 2.42 0 0 1-1.9-1c-7.4-11.1-18.6-19.5-18.7-19.6a2.29 2.29 0 1 1 2.7-3.7c.5.4 12 8.9 19.8 20.7a2.35 2.35 0 0 1-.6 3.2 2 2 0 0 1-1.3.4M23.1 316.3c-8.7 3.7-14.4 6.2-17.4 7.3a11.14 11.14 0 0 0-.2-1.7c-.2-2.5 6.1-13.8 12.2-23l-3.8-2.6c0 .1-3.5 5.3-6.8 11a91.11 91.11 0 0 0-4.7 9.1v12.4a2.77 2.77 0 0 0 .9.1 15.85 15.85 0 0 0 5.1-1.5c3.2-1.3 8.2-3.4 16.6-7 14.3-6.1 24.2-6.6 30.1-5.9 6.2.7 9.2 2.9 9.2 2.9l2.8-3.6c-.7-.4-14-10.4-44 2.5z" fill="#131841"/><path d="M72.6 310.5L51.7 324" fill="#32375c"/><path fill="#131841" d="M52.9 325.9l-2.4-3.9 20.9-13.5 2.5 3.9-21 13.5z"/><path d="M54 320.5a2.43 2.43 0 0 0-3.1 1.1L43 338.7c-4.6 1.6-25.3 8.8-40.8 14.3v4.9c17.2-6 41.7-14.6 43.3-15.1a2 2 0 0 0 1.3-1.2l8.3-18a2.23 2.23 0 0 0-1.1-3.1z" fill="#131841"/><path d="M325.3 310.8s38.1 19 45 23.1" fill="#32375c"/><path d="M369.1 335.9c-6.8-4.1-44.4-22.9-44.8-23.1l2.1-4.1c1.6.8 38.2 19.1 45.1 23.2z" fill="#131841"/><path d="M379.5 371.3l6.3-42.6s-16-11.3-27.2 42.6z" fill="#32375c"/><path d="M360.9 371.3c6.1-28.9 13.3-37.8 17.9-40.3a6 6 0 0 1 5.7-.4l1.3-1.9 1.3-1.9a10 10 0 0 0-10.3 0c-8.5 4.5-15.4 19.5-20.6 44.5h4.7z" fill="#131841"/><path d="M28.9 371.3c-3.5-.1-7.1-.2-10.9-.2s-7.3.1-10.7.2z" fill="#ff862e"/><path d="M2.3 371.3h53c-1.8-.3-3.8-.6-6.4-.9a274.46 274.46 0 0 0-31-1.5c-5.5 0-10.7.1-15.7.3v2.1z" fill="#131841"/><path d="M113.6 155.8s-13.8 12-18.4 28.6" fill="#fefefe"/><path d="M95.2 186.6a1.27 1.27 0 0 1-.6-.1 2.31 2.31 0 0 1-1.6-2.8c4.7-17.1 18.6-29.2 19.1-29.7a2.32 2.32 0 0 1 3.2.2 2.46 2.46 0 0 1-.2 3.3c-.1.1-13.4 11.8-17.7 27.4a2.23 2.23 0 0 1-2.2 1.7" fill="#131841"/><path d="M165.2 171.4s4.6 11.1 4.6 18.4" fill="#fefefe"/><path d="M169.8 192.2a2.26 2.26 0 0 1-2.3-2.3c0-6.8-4.4-17.4-4.4-17.5a2.285 2.285 0 0 1 4.2-1.8c.2.5 4.8 11.6 4.8 19.3a2.33 2.33 0 0 1-2.3 2.3" fill="#131841"/><path fill="none" stroke="#131242" stroke-width="4" d="M2 2h410v369H2z"/></svg>