<svg viewBox="0 0 414.82 373" xmlns="http://www.w3.org/2000/svg"><path fill="#fff" d="M0 0h413v373H0z"/><path fill="#28235a" d="M0 0h413v373H0z"/><path d="M146.6.3h-37c-2.9 10.7-1.5 22.2 11.2 34.4 26.4 25.2 12.1 44.3 21.8 29.8s24.1-51.2 22.6-51.6c-7.1-1.5-16.2-2.7-18.6-12.6z" fill="#243a86"/><path d="M108.8 3C105 22 125 36 133 51c4 7 2 16-.5 23.6M166.4 10.9c-7 .9-14.9-1.8-18.6-8.1" fill="none" stroke="#121840" stroke-linecap="round" stroke-width="2.13"/><path d="M360.7.3c10.1 3.5 19.6 6 19.6 6s1.1-2.1 2.7-6z" fill="#243a86"/><path d="M380 28.8c-3.5-5.2-3.4-12-1.9-18A76.88 76.88 0 0 1 381.8.3H184.6a28 28 0 0 1-11.1 8.2c-2.6 1.1-6.2 1.1-8.3 3-10.4 9.3-19 20.7-29.8 37 2.1 8.5 2.8 16.8-.8 24.8s-13.3 12.3-21.4 15.8c-12.7 5.4-26.1 9.8-39.9 10.2-25 .6-50.4-14-59.9-37-8.9-21.7-.9-49.6 18.7-62H2.7c-.5.5-1 .9-1.5 1.4V103c24.2 24.1 57.9 37.7 91.9 42.5 9.9 1.4 20.9 2.6 27.7 9.9a23.93 23.93 0 0 1 5.9 13 28.4 28.4 0 0 1-9.9 25c-5.7 4.7-13 6.9-20.1 9-6.8 2-13.6 4.1-20.3 6.1-3.5 1-7 2.1-10.6 1.8-5.4-.5-10-4-13.9-7.8-5.8-5.8-10.6-12.7-17.6-17.1a31.14 31.14 0 0 0-33.1.4v23.5a6.81 6.81 0 0 0 2.8-.4c2.5-.9 4.3-3.2 6.6-4.5 6.6-3.9 15.4.2 20.3 6.1s7.9 13.4 13.2 18.9c7.1 7.4 17.8 10.6 28 10.7s20.4-2.5 30.3-5.1c7.8-2 15.6-4.1 23.3-6.1 6.1-1.6 11.7-4.9 17.6-2.6a18.84 18.84 0 0 1 11.4 14.1c3 17.7-19.3 31.3-18.7 49.3.3 10.3 8.4 19.3 8.7 29.6.4 11.3-10.5 21.7-21.8 21-3-.2-9.4 3.9-16.7-2.6-4.9-9.9-12.9-23.4 6.4-40.3 5.1-4.4-8.7-7.4-9.7-7.2-10.1 1.5-39.5 54 8.8 73.5 11 4.3 26.9 4.9 37.1-1 9.7-5.6 14.1-14.7 16.2-25.7a52.37 52.37 0 0 0 .9-15.3c-.7-5.7-2.8-11.2-3.2-16.9-.9-12.9 7.5-25.2 18.6-31.7 8.6-5 22-6.7 28.8.4 5.9 6.2 8.1 8.1 9 28.6.7 15.6-5.8 29.4-4.3 48.4a49.78 49.78 0 0 0 2.6 13.5 28.23 28.23 0 0 0 5.1 8.9h83.9c2.5-8.4.8-16.6-5.3-23.7-6.3-7.3-23.3-18.6-39.3-8.9-.6-14.5 17.2-38.6 26.3-48.4 10.7-11.1 21.1-11.2 36.5-9.1 13.6 1.8 25 11.8 32.2 23.5s11 25.1 15.3 38.1c3.2 9.5 7.5 17.7 14.8 24.7a31.6 31.6 0 0 0 4.5 3.7H411a24.38 24.38 0 0 1 2.7.1v-16.4a17.48 17.48 0 0 1-2.9-1.8 21.19 21.19 0 0 1-5.4-7.5c-10.1-20.1-7.5-44.5-.3-65.8 1.7-5 3.7-10 7.1-14l1.5-1.5v-95.6c-2.2 2.5-5.8 3.8-9.2 4.2-4.1.5-8.4.2-12.4 1.3-7.7.8-13.6-.2-20.7 2.8s-14.9 9.1-20.8 14.3c-9.7 8.4-19.2 16.7-30.7 22.3a56.81 56.81 0 0 1-36.3 4.9c-11.5-2.2-20.6-10.2-30.5-16.4-15.1-9.6-29.1-17.1-44.3-26.7-5.6-3.5-13.4-4.1-19.9-5.3-6.2-1.2-12.5-1.8-18.7-2.7s-12.9-3.4-13.4-9.7c-.5-7.3 11.2-9.2 17.6-12.8 14.3-8.1 26.2-18.2 37.4-30.1C228.1 99.1 237.5 81.8 260 74a65.76 65.76 0 0 1 54.9 5.7c16.1 9.8 23 20.1 35.8 33.9a160.25 160.25 0 0 0 44.1 34c4.3 2.2 13.7 4.7 17.1 8.1a15.91 15.91 0 0 1 2 2.4V92.4c-2.3.6-3.4-.3-4.6-1a10.18 10.18 0 0 1-3.2-2.6c-3.9-4.3-6.7-9.4-6.7-15.2 0-1-.1-2 0-3 .1-1.6 1.3-3.5 2.7-3.7a6.1 6.1 0 0 1 6 2.4 42.72 42.72 0 0 1 5.8 11.3V30.5a40.84 40.84 0 0 1-12 5.5c-8 1.6-17.4-.5-21.9-7.2zm-237.9 90.9c-.5 3.2-1.3 6.5-3.2 9.1s-4.9 4.2-8.1 3.4c-.4-.8-1.5-.7-2.4-.9a5.56 5.56 0 0 1-3.9-3.4 10.6 10.6 0 0 1-.5-5.3 29.7 29.7 0 0 1 11.7-20.8c1.4-1.1 3.3-2 4.9-1.2s2 2.8 2.1 4.6a58.77 58.77 0 0 1-.6 14.5zm255.4 159.6a24.31 24.31 0 0 1-17.4 7.6c-3.1 0-6.8-1-7.9-3.9s.8-6.1 3.1-8.2c4.9-4.6 8.3-4.8 15.7-6.3 4.5-.4 7.1.4 8.7 3.2 1.3 2.5-.3 5.5-2.2 7.6zm-48-41.9a24 24 0 0 1 4.9-7.7c10.5-12.3 26.6-27.2 39.8-23.4 3.6 1.6 5.7 5.4 6.2 9.3.9 6.8-2.4 13.7-7.3 18.6s-11.1 8.1-17.4 11.1c-4.5 2.2-9.2 4.3-14.2 4.9-4.1.5-8.9-.4-11.2-3.8a10.56 10.56 0 0 1-.8-9zm-47.7 17.4a14.25 14.25 0 0 1 10.6-8.1c2.1-.3 2.3 1.8 2.3 3.5a8.58 8.58 0 0 1-2.3 5.9 14.81 14.81 0 0 1-5.4 3.5c-1.7.7-3.9 1.1-5.1-.3-1-1.3-.7-3.1-.1-4.5zM242.5 295c8.2 0 9.6 13.8 7.8 21.7-.7 3.3-.9 4-4.1 6.3-2.1 1.6-5.4 1-7.4-.8s-2.8-4.6-3.3-7.2c-1.1-7.3-.3-19.6 7-20zm-72.9-51.6a7 7 0 0 1 2.6-2.5c3-1.5 6.9.7 7.8 3.9s-.8 6.7-3.5 8.7c-2.8 1.7-4 1.9-6.4-.6a8.26 8.26 0 0 1-.5-9.5zM200 96c-3.5 5.2-7.3 10.6-12.8 13.6-1.2.7-3.1 1-3.8-.2a2.66 2.66 0 0 1-.3-1.2 12.53 12.53 0 0 1 2.2-6.9 22 22 0 0 1 5.6-6.5 31.42 31.42 0 0 1 3.9-2.4 5.13 5.13 0 0 1 3.3-1c1.2.3 3.3 1.4 1.9 4.6zm77-49.9c-4.5 1.9-7.6 1.2-11.3-2a26.74 26.74 0 0 1-6.7-6.3c-1.7-2.5-2.5-5.9-1.3-8.7 1.4-3.3 5.3-4.9 8.8-4.8s6.8 1.8 9.9 3.7c2.5 1.5 5 3.4 6.1 6 1.9 4.7-1 10.3-5.5 12.1zm42.7-18.4c-4.9-4-9.6-8.8-11.1-14.9a10.74 10.74 0 0 1 .2-6.4 6.68 6.68 0 0 1 4.7-4.1 7.89 7.89 0 0 1 3.4.3c11.5 2.5 21.8 9.1 30.2 17.3 5.6 6 11.3 13.7 8.4 19.6-1.2 2.4-4.2 2.9-6.9 2.5-10.7-1.8-20.5-7.4-28.9-14.3zm59.7 72.6c-.7 2.6-1.7 2.6-4.3 3.1a7.65 7.65 0 0 1-4.7-1.1 11.32 11.32 0 0 1-3.4-2.8c-5-5.3-9.9-10.7-14.4-16.4-3.1-4-6.1-8.3-6.9-13.3a6.35 6.35 0 0 1 .4-4.1c1.1-2.1 4-2.7 6.4-2.4 5.6.7 10.1 5 13.8 9.2 6.2 7.1 11.2 13.1 12.9 22.3a12 12 0 0 1 .2 5.5z" fill="#243a86"/><path d="M221.5 372.7a27.52 27.52 0 0 1-3.9-7.4h-.1a34.2 34.2 0 0 1-10 7.4zM168.6 372.7h21.5c-4.1-2.5-6.7-7.5-5.8-12.1.5-2.3 1.7-4.5 1.1-6.7-1-3.8-6.5-4.4-10.1-2.7a15.56 15.56 0 0 0-8.7 14.4 14.9 14.9 0 0 0 2 7.1z" fill="#4459a7"/><path d="M124.1 122.6a10.6 10.6 0 0 0 .5 5.3 5.35 5.35 0 0 0 3.9 3.4c.9.1 2 .1 2.4.9 3.1.8 6.1-.8 8.1-3.4s2.7-5.9 3.2-9.1a65 65 0 0 0 .7-14.6c-.1-1.8-.5-3.8-2.1-4.6s-3.5.2-4.9 1.2a30 30 0 0 0-11.8 20.9" fill="#9ea5cb"/><path d="M413.7 157.9a11.6 11.6 0 0 0-2-2.4c-3.4-3.4-12.8-5.9-17.1-8.1-16.8-8.6-31.2-20.3-44.1-34s-19.7-24.1-35.8-33.9a66.13 66.13 0 0 0-54.9-5.7c-22.5 7.9-31.9 25.2-48.2 42.4-11.3 11.9-23.1 22.1-37.4 30.1-6.4 3.6-18.1 5.5-17.6 12.8.4 6.3 7.2 8.7 13.4 9.7s12.5 1.6 18.7 2.7c6.5 1.2 14.3 1.8 19.9 5.3 15.2 9.6 29.2 17.1 44.3 26.7 9.9 6.3 19 14.3 30.5 16.4a57 57 0 0 0 36.3-4.9c11.5-5.7 21.1-13.9 30.7-22.3 5.9-5.1 13.6-11.3 20.8-14.3s13-2 20.7-2.8c4-1.1 8.3-.7 12.4-1.3 3.4-.4 7-1.7 9.2-4.2v-12.2zM290 165.6c-22.9-.2-43.9-1.7-73.9-19.2l-.1-.3c3.6-1.6 6.2-2.2 9.7-4.1 14-7.5 27.5-13.4 42.8-17.5a69.08 69.08 0 0 1 51.2 5.7c13.9 7.6 23.2 16 37.6 22.1-27.9 9-50.3 13.5-67.3 13.3z" fill="#26306d" stroke="#233780" stroke-width="1.2"/><path d="M169.6 243.4c-1.8 2.9-1.8 7 .6 9.5s3.5 2.3 6.4.6c2.7-1.9 4.4-5.5 3.5-8.7s-4.8-5.4-7.8-3.9a7.24 7.24 0 0 0-2.7 2.5M230.1 241.7a3.36 3.36 0 0 0-.5 2.6c.4 3.4 2.5 6.5 4.6 9.3a13.75 13.75 0 0 0 3.3 3.5 13 13 0 0 0 2.6 1.4 7 7 0 0 0 2.5.5c.7 0 1.8-.1 3.1-.2a3.33 3.33 0 0 0 3-1.8 4.08 4.08 0 0 0 .1-1.9c-.3-2.8-1.7-5.8-4.5-6.7a7.42 7.42 0 0 1-2.1-.7c-.8-.5-1.1-1.4-1.6-2.1a10.07 10.07 0 0 0-6.9-4.7 3.48 3.48 0 0 0-3.6.8" fill="#9ea5cb"/><path d="M215.5 146.5c22.5 14.2 46.6 19.5 69.9 19.5 25.5 0 58.1-5.9 74.9-15.7-14.3-4.3-26.6-14.4-40.5-19.8-15.5-6-33.6-9.1-50.7-5.8-15.3 3-29.5 11.4-43.5 16.8-3.5 1.3-3.7 2.4-7.3 3.5z" fill="#fefefe"/><path d="M242.5 295c-7.3.4-8.1 12.7-6.9 20 .4 2.7 1.3 5.4 3.3 7.2s5.3 2.5 7.4.8c3.2-2.3 3.3-3 4.1-6.3 1.7-7.9.3-21.7-7.9-21.7M257.7 29.2c-1.2 2.8-.4 6.1 1.3 8.7s4.2 4.4 6.7 6.3c3.7 3.2 6.8 3.9 11.3 2s7.5-7.5 5.5-12c-1.1-2.7-3.6-4.5-6.1-6-3-1.9-6.3-3.5-9.9-3.7s-7.4 1.5-8.8 4.7" fill="#9ea5cb"/><path d="M253.5 130a5.85 5.85 0 1 0 5.9 5.8 6 6 0 0 0-5.9-5.8" fill="#121840"/><path d="M301.8 254.8c-.6 1.4-1 3.2.1 4.4 1.2 1.4 3.4 1 5.1.3a14.81 14.81 0 0 0 5.4-3.5 8.14 8.14 0 0 0 2.3-5.9c-.1-1.7-.3-3.8-2.3-3.5a14.37 14.37 0 0 0-10.6 8.2M308.7 6.3a10.74 10.74 0 0 0-.2 6.4c1.5 6.1 6.2 10.9 11.1 14.9 8.4 6.9 18.2 12.5 29 14.3 2.6.5 5.7-.1 6.9-2.5 2.8-5.9-2.8-13.6-8.4-19.6-8.5-8.2-18.7-14.8-30.2-17.3a9.82 9.82 0 0 0-3.4-.3 6.65 6.65 0 0 0-4.8 4.1M349.5 237.4a9.76 9.76 0 0 0 .9 8.8c2.4 3.4 7.1 4.3 11.2 3.8 5-.6 9.7-2.7 14.2-4.9 6.2-3 12.5-6.2 17.4-11.1s8.2-11.7 7.3-18.6c-.5-3.9-2.7-7.7-6.2-9.3-13.2-3.8-29.3 11.1-39.8 23.4a25.69 25.69 0 0 0-5 7.9M375.2 274.8c-2.3 2.1-4.2 5.3-3.1 8.2s4.8 3.9 7.9 3.9a24.31 24.31 0 0 0 17.4-7.6c1.9-2 3.5-5.1 2.1-7.6-1.6-2.8-4.2-3.7-8.7-3.2-7.3 1.5-10.7 1.7-15.6 6.3" fill="#9ea5cb"/><path d="M279.4 352.3c-13 .6-17.9-4.2-18.2-11.5-.6-14.5 17.2-38.6 26.3-48.3M307.7 370.2c3.7-22.8-27.1-39.8-45.7-28.7M217.4 364.9a28.07 28.07 0 0 0 2.7 5.5M3.6 208.7C9 204 14 201 21 203c3 1 6 4 9 6 8 10 13 22 25 28 9 4 18 4 28 3 19-4 35-9 53-15 8-2 17 4 19 13a30.79 30.79 0 0 1-3 19c-8 12-19 24-15 39 2 7 7 13 8 20 1 9-3 19-12 23-11 5-26 2-31-10-4-10 1-21 9-29 1-1 4-4 1-7-7-6-17-1-21 5-7 13-7 28-5 43 12 20 39 32 61 21 20-10 22-37 16-57-1-6 1-12 3-17 8-14 27-26 43-16l5 5c3 4 4 9 5 13 1 20-4 39-4 58 0 5-1 11 2.7 16.2M3.5 105.9C9 111 14 115 21 118l3 3c25 14 51 24 79 26 8 1 17 4 21 11a24.92 24.92 0 0 1 3 17c-2 12-11 20-21 25-13 5-27 11-41 9a31 31 0 0 1-13-6c-6-7-11-15-19-19-9-4-20-5-29.2-.3M133.5 72.8c-6 13-24.2 18.5-36.8 22.2-15.4 4.6-31.8 5.7-47.1.2C27 87.1 9.1 66 9.8 41.2c.4-14.6 7-29.4 18.5-38.7M181.9 2.7C177 8 171 9 165.2 11.1M411.3 31c-8 5.7-20.8 8.3-28.5.8-8.1-7.8-4.3-20.1-.3-28.8M388 370.4c-16.3-14.5-18.2-37.9-27.8-56.5-8.4-16.5-21.9-29.4-41-31.4-11.7-1.2-23.2 1-31.7 9.7M411.3 268.7C401 283 399 300 399 316c-1 14 1 29 12.4 39.4M369.4 153.7a56.2 56.2 0 0 1-8.3-2.2c-14.5-5-26.4-14.9-40.4-21.2-15.7-7-34.7-9.4-52-5.6-15.5 3.4-28.8 11.4-42.9 17.6-3.6 1.5-7.2 3-10.9 4.3-4 1.4-8 2.7-12.1 3.9" fill="none" stroke="#121840" stroke-linecap="round" stroke-width="2.13"/><path d="M360.6 149.7c-16.8 8.2-47.2 15.9-72.7 15.9-23.4 0-56-7.3-72-19.2M186.2 370.5c-3.3-4.3-2.3-8-1.3-12.8.8-4.3-2-6.9-6.3-6.8-9 .4-14 11.4-11.8 19.2M217 366.2a45.82 45.82 0 0 1-4.6 4.2" fill="none" stroke="#121840" stroke-linecap="round" stroke-width="2.13"/><path d="M227.6 323.6a1.61 1.61 0 0 1 2 .5 7.49 7.49 0 0 1 1 2 8.89 8.89 0 0 0 5 4.5 19.23 19.23 0 0 0 6.7 1.1 15.1 15.1 0 0 1 5.6.6 5.45 5.45 0 0 1 3 3.3 3 3 0 0 1-.4 2.9 2.86 2.86 0 0 1-2.2.8c-5.9.4-10.8-4.6-16.6-5.4-2.7-.4-5.6.1-7.8-1.4a5 5 0 0 1-1.9-5.2 5 5 0 0 1 4.2-3.6c.7-.1 1.4 0 1.9-.4M244.3 346.9a39.84 39.84 0 0 0-18.4-3.2 1.88 1.88 0 0 0-.8.2 2 2 0 0 0-.4.8 3.9 3.9 0 0 0 1.9 4 9.76 9.76 0 0 0 4.8.8c3.1-.1 6.2-.1 9.2-.2a6.35 6.35 0 0 0 2.7-.4 2.55 2.55 0 0 0 1.7-1.8 4.4 4.4 0 0 0-2.3-1M249.9 372.7l.8-.8a6.84 6.84 0 0 0 1.6-5.5c-.3-2-1-2.5-2.7-2.4-3.7 3.9-8.6 7.2-13.6 6.2-1.3-.3-2.6-.8-3.9-1a3.91 3.91 0 0 0-3.7 1.1 3.85 3.85 0 0 0-.8 2.4z" fill="#9ea1c9"/><path d="M262.6 372.7a3.14 3.14 0 0 0-.6-1.6 2.31 2.31 0 0 0-2.9-1 19.73 19.73 0 0 1-.7 2.6z" fill="#10183f"/><path d="M110.2 97.9l-3.6 6.2c-.4.7-1 1.5-1.8 1.4a1.81 1.81 0 0 1-1.4-1.6c-.2-2.3 1.7-4.2 3.5-5.9a4.37 4.37 0 0 1 2.4-1.3c.9 0 1.9 1 1.3 1.6" fill="#9da1c8"/><path d="M143.4 218.3c1.8.2 3.4 1 5.2 1.1s3.9-.5 4.4-2-1.1-2.9-2.4-4.1a24 24 0 0 1-7.7-12.5c-.2-.7-.4-1.5-1.1-1.8-1.3-.5-2.4 1-2.7 2.2a19.25 19.25 0 0 0 1.5 13.3M131.3 221.1a10 10 0 0 0 1.2-4.4c-.1-1.6-1.2-3.2-2.6-3a3.85 3.85 0 0 0-2.2 1.6c-1.4 1.6-2.8 3.5-2.5 5.7a3.23 3.23 0 0 0 3.2 2.9 3.44 3.44 0 0 0 2.9-3.3M120.9 222c-.1.3-.3.5-.4.8a61.39 61.39 0 0 1-11.9 3.9c-.9.2-2.1.2-2.3-.5-.1-.4.2-.8.5-1.2a16.65 16.65 0 0 1 9.6-5.3 4.94 4.94 0 0 1 3.6.4c1 .6 1.2 2.2.1 2.7M98.6 232.2a3.41 3.41 0 0 0 3.1.2 3 3 0 0 0 1.5-3 4.1 4.1 0 0 0-1.3-2.3l-6.1-7.3a5 5 0 0 0-2.1-1.7 11.34 11.34 0 0 0 .2 8.3c1.1 2.4 2.4 5.2 4.7 5.8" fill="#9ea2c9"/><path d="M86.7 228c-.7-.8-1.9-1.6-2.8-1.1a2.28 2.28 0 0 0-.8.9 4.21 4.21 0 0 0 1.5 4.8 7.65 7.65 0 0 0 5.5 1.4 1 1 0 0 0-.4-1M74.5 229.7a1.48 1.48 0 0 0-1.3.2 2.44 2.44 0 0 0-.3 2.5c.9 2.4 3.6 3.7 5.6 2.7" fill="#0a183a"/><path d="M96 138.5c.1 0 0 .2-.1.1s0-.2 0-.3a9.74 9.74 0 0 0-1.9-7 1.65 1.65 0 0 0-1-.8c-.4-.1-1 .2-.9.6a3 3 0 0 1-.6 2.6 3.43 3.43 0 0 1-3.4.7c-1.2-.3-2.2-1-3.4-1.3a8.28 8.28 0 0 0-6 .5.22.22 0 0 0-.2.2c-.1.1 0 .2 0 .4.2.8 1.2 1.3 2 1.7a48.89 48.89 0 0 0 11.9 3.3 3.66 3.66 0 0 0 1.8 0 1.63 1.63 0 0 0 1.3-1.1" fill="#9da0c7"/><path d="M162 286.2c.7-.7 1.5-1.7 1.2-2.7a1.78 1.78 0 0 0-2.3-1.1 5 5 0 0 0-2.2 1.9 6.77 6.77 0 0 0-1.2 2.4 2.76 2.76 0 0 0 .6 2.5 2.32 2.32 0 0 0 3.1-.2 5.86 5.86 0 0 0 1.4-3.2M158.6 295.5a1.31 1.31 0 0 0 .3-1.2 5.24 5.24 0 0 0-3.5-.1 30.13 30.13 0 0 0-3.1 1.6 31.42 31.42 0 0 1-6.2 2.7 6.91 6.91 0 0 0-2.5 1 1.51 1.51 0 0 0-.5 2.1 1.7 1.7 0 0 0 1 .6 10 10 0 0 0 7-.4 28.3 28.3 0 0 0 5.8-3.6c.9-.7 1.9-1.6 1.7-2.7M143.8 358.7a13.86 13.86 0 0 0-.7-11.6 2 2 0 0 0-1-1c-1-.3-1.6 1.3-1.7 2.4a61.44 61.44 0 0 0 .3 10.5 1.93 1.93 0 0 0 .3 1 1.35 1.35 0 0 0 2 .3 3.21 3.21 0 0 0 1-2.1" fill="#9da0c6"/><path d="M136.1 363.4c0 .2.2.3.3.2a.76.76 0 0 0 .2-.5 16.59 16.59 0 0 0 .3-4.4 3.89 3.89 0 0 0-2.2-3.3.3.3 0 0 0-.4 0c-.2.1-.2.4-.2.7v5.1a4.49 4.49 0 0 0 .4 2.3c.4.6 1.3.9 1.7.3" fill="#0a183a"/><path d="M125.8 361.1a2.77 2.77 0 0 0 .9-.1 5.78 5.78 0 0 0-2.4-5.4c-.3-.2-.8-.5-1.2-.3a.78.78 0 0 0-.4.4c-1.3 2.1.6 5.1 3.5 5.4M107.2 298.3a2.77 2.77 0 0 0 .9-.1 5.78 5.78 0 0 0-2.4-5.4c-.3-.2-.8-.5-1.2-.3a.78.78 0 0 0-.4.4c-1.3 2.1.6 5.1 3.5 5.4" fill="#9da0c6"/><path d="M157.4 304.2a.63.63 0 0 1 .1.9 1.56 1.56 0 0 1-.8.6l-5.5 3.2c-.4.3-.9.6-1 1-.2.6.4 1.2 1 1.4a4.07 4.07 0 0 0 1.9 0 10.36 10.36 0 0 0 3.8-1.1 3.43 3.43 0 0 0 2-3 1.82 1.82 0 0 0-1.5-1.8M160.1 316.1a2 2 0 0 0-1.7-.1 1.87 1.87 0 0 0-1 1.4 2.81 2.81 0 0 0 .5 2.2 1.57 1.57 0 0 0 2 .4 4.05 4.05 0 0 0-.6-4.2" fill="#0a183a"/><path d="M402.5 355.2c-1 5.4-6.3 8.8-11.3 10a5.33 5.33 0 0 1-2.5.2 2.27 2.27 0 0 1-1.7-1.7 2.61 2.61 0 0 1 1.5-2.4 12.76 12.76 0 0 1 2.8-.7 12.51 12.51 0 0 0 8-5.3 10.91 10.91 0 0 1 2.1-2.7 1.21 1.21 0 0 1 1.5-.1c.2.2.2.5.3.8a4.82 4.82 0 0 1-1.5 4.1M380.3 331.9c.6.3.2 1.1-.3 1.5a20.88 20.88 0 0 1-4.7 3c-.2-2.4 1.7-4.9 4.4-5.7a1.65 1.65 0 0 1 1.2 0c.4.3.2.8 0 1.2a7.24 7.24 0 0 1-2.7 2.5" fill="#9c9dc3"/><path d="M404.9 361.1a2.64 2.64 0 0 1-.7 1.9 24 24 0 0 1-3.9 3.9 4.32 4.32 0 0 0-1.7 2.1 1.93 1.93 0 0 0 1.5 2.2c1 .1 1.8-.7 2.5-1.5a21.1 21.1 0 0 0 1.9-2.3 5.64 5.64 0 0 0 1.3-2.4 3.94 3.94 0 0 0-.6-3M408 372.7h3a24.38 24.38 0 0 1 2.7.1v-4.4a5.73 5.73 0 0 0-3.7-1.1l-.1-.1v.2c0 .2-.2.4-.4.6a14.31 14.31 0 0 0-1.9 2.4 1.61 1.61 0 0 0-.3.9 1.69 1.69 0 0 0 .3 1z" fill="#9c9cc2"/><path d="M371.3 323.9a4.83 4.83 0 0 0 2.9.7 1.42 1.42 0 0 0 .6-.2c.2-.1.2-.3.3-.5.5-1.6-.3-3.3-1.2-4.8s-2-2.9-2.3-4.5a16.21 16.21 0 0 0-.3-2c-.4-1.6-1.9-2.7-3.2-3.7a1.08 1.08 0 0 0-.7-.3c-.5 0-.8.6-.8 1.1-.2 2 .9 3.9 1.7 5.8a22.48 22.48 0 0 1 1.7 5.4c.2 1.2.6 2.6 1.8 3" fill="#9c9cc1"/><path d="M223.2 282.2a10 10 0 0 0-2.6-5.9c-3.2-3.4-8.7-4.4-10.3-8.8a2.11 2.11 0 0 1 .2-2.3 1.43 1.43 0 0 1 1-.4c2.8-.4 5.3 1.8 7.5 3.8a29.83 29.83 0 0 1 5.3 5.9 11.15 11.15 0 0 1 1.7 7.7 2.14 2.14 0 0 1-.9 1.5 1.41 1.41 0 0 1-1.7-.7 4.24 4.24 0 0 1-.6-1.9M260.6 307.2a8.91 8.91 0 0 0 1.1 5.1c.2.3.6.7 1 .6s.9-.6 1.1-1.1l2.2-4.8a9.4 9.4 0 0 0 1.1-3.6 8.57 8.57 0 0 0-1-4.1 60.32 60.32 0 0 0-4.1-8c-.6-1.1-1.9-2.3-3-1.7s-.6 2.4.2 3.5" fill="#9c9bc0"/><path d="M349.5 162.7c-11 5.7-21.6 12.5-33.6 15.2-4.7 1.1-10.1 1.9-12.6 6a3.26 3.26 0 0 0-.4 1.3c.1.9 1.2 1.4 2.1 1.6 8.7 1.8 17.5-2.1 25.5-5.9 8.9-4.3 17.9-8.5 26.8-12.8a7.94 7.94 0 0 0 3.8-2.9c.8-1.4 2.6-4.8 1.1-5.3-4.2-1.2-8.7.8-12.7 2.8zM308.4 194.7a38.8 38.8 0 0 1-12.4 3c-4.5.3-9.8 0-12.7 3.8 2.7 3.3 7.5 3.4 11.7 2.7a51.62 51.62 0 0 0 18.3-6.9c1.1-.6 2.2-2 1.4-3a37.58 37.58 0 0 0-8.7 1.4M294.4 182.5a7.26 7.26 0 0 0 3.1-1.7 3.08 3.08 0 0 0 .6-3.4c-.8-1.4-2.7-1.3-4.2-1.1-26 3.5-54.1-.7-75.3-17.4-2.2-1.7-5-3.7-7.4-2.4a37.23 37.23 0 0 0 12 10.7 80.59 80.59 0 0 0 9.5 4.2c6.5 2.5 13.1 5 19.6 7.5 4 1.5 7.9 3 12 4.1a54.9 54.9 0 0 0 30.6-1" fill="#4559a7"/><path d="M199.3 159.4c-2.5 0-5.3.1-6.9-1.8-1.9-2.2-.6-5.5-.6-8.3a1.08 1.08 0 0 0-.2-.8c-.1-.2-.4-.3-.6-.4a4.36 4.36 0 0 0-3.8.8 9.5 9.5 0 0 0-2.5 3.1 7.84 7.84 0 0 0-.9 2.4c-.1 2.1 1.7 3.8 3.6 5 3.2 2 7 3.5 10.9 3.1a2 2 0 0 0 1.3-.4c.9-.7 0-2.4-1.1-2.2" fill="#10183f"/><path d="M182.3 158.8a10.37 10.37 0 0 1-6.7-3.9 5.5 5.5 0 0 0-.7-.9 2.91 2.91 0 0 0-3.2.4 4.33 4.33 0 0 0-1.1 2.6 1.48 1.48 0 0 0 .2 1.3 3.6 3.6 0 0 0 1.2.8 28.28 28.28 0 0 0 9.6 1.9 2.71 2.71 0 0 0 1.6-.3 1.17 1.17 0 0 0-.1-1.9 7.29 7.29 0 0 0-2.6-.9" fill="#455aa7"/><path d="M394.5 166.2a9.71 9.71 0 0 0 3.4-1.1 4.44 4.44 0 0 0 2.2-3.1c.3-2.4-1.5-4.4-3.2-5.8-2.1-1.8-4.3-3.7-7-3.9a4.23 4.23 0 0 0 1.2 3.4 15.46 15.46 0 0 1 2.4 2.7c.6 1.1.9 2.6.1 3.6a7.12 7.12 0 0 1-1.7 1.1 1.91 1.91 0 0 0-1.1 1.7 1.78 1.78 0 0 0 .4 1 3 3 0 0 0 4.2.6M377.9 163a4 4 0 0 0 4.3-2.4 5.51 5.51 0 0 0-.8-5.1c-.9-1.3-2.6-2.3-3.8-1.4-1.5 1-.8 3.3-1.3 5-.3.9-1 1.7-1 2.7a2.17 2.17 0 0 0 4.3.5M366.5 146.4a9.18 9.18 0 0 0 7.3 3c.2-1.3-.8-2.3-1.8-3.1-7.2-5.9-14.3-11.8-21.5-17.7a48.07 48.07 0 0 1-6.6-6.2c-2.9-3.6-5.3-8.4-9.7-9.4a2.9 2.9 0 0 0-1.6 0c-1.5.6-1.5 2.8-.9 4.3 1.5 4.4 5.1 7.5 8.7 10.4a255.8 255.8 0 0 0 26.6 18.8M295.5 85.6c.6.2 1.2.4 1.7.6 1.1-1 .2-2.9-1.1-3.7-4.3-2.9-10.2-.5-15.1-2-2.3-.7-4.3-2.2-6.7-2.6a10.64 10.64 0 0 0-5 .6 29.16 29.16 0 0 0-18.5 16.8 11.91 11.91 0 0 0 9.2-2.9c1.5-1.4 2.7-3.2 4.3-4.4 2.8-2.1 6.6-2.3 10.1-2.4 7.2-.1 14.4.1 21.6.5" fill="#4559a7"/><path d="M326.5 100.5c.5-.5-.1-1.4-.6-1.9l-5.7-5.1c-3.8-3.4-8.1-7-13.2-7.1-.9 0-2.1.5-2 1.4 0 .3.3.6.5.8 2.7 3.1 6.7 4.6 9.4 7.6 1.4 1.6 2.4 3.5 4 5a10.12 10.12 0 0 0 7.9 2.7 7.36 7.36 0 0 0-.4-4.4" fill="#455aa7"/><path d="M317.2 117.5c-5.1-1.7-10.3-3.3-15.4-5-6-2-12.3-4-18.6-3.2-3.5.4-6.9 1.8-10.3 3.1-5.7 2.2-11.3 4.4-17 6.6-5.2 2-10.5 4.1-15 7.4-1.2.9-2.7 1.9-4.1 1.4s-2-2.4-1.6-3.8a7.36 7.36 0 0 1 2.7-3.6c6.9-6.2 15.1-10.6 23.3-14.9a52.39 52.39 0 0 1 10-4.4c6.7-1.8 13.7-.6 20.4 1.1a119.62 119.62 0 0 1 21.6 8.1c2.8 1.4 5.9 3.9 5.1 6.9a2.13 2.13 0 0 1-2.3-.1M242 103.2a29.71 29.71 0 0 0-12.5 21.4c-.2 2-.1 4-1 5.7a10.74 10.74 0 0 1-4.6 4.1 138.84 138.84 0 0 1-21.3 10.2c-1.1.4-2.7.4-2.8-.7a1.52 1.52 0 0 1 .7-1.2c3.3-3 7.9-3.9 11.6-6.4 6.3-4.3 8.6-12.5 12.4-19.2a39.72 39.72 0 0 1 17.7-16 3.59 3.59 0 0 1-2.4 2.9" fill="#4559a7"/><path d="M397.6 259.9a1.27 1.27 0 0 1 1.5-1 1.26 1.26 0 0 1 .9 1.5 2.29 2.29 0 0 1-.7 1 28.39 28.39 0 0 1-4.7 3.7 5.13 5.13 0 0 1-2.4 1 2.08 2.08 0 0 1-2.2-1.2c-.5-1.3.7-2.5 1.9-3.3a18.09 18.09 0 0 1 6.3-2.5" fill="#10183f"/><path d="M244.5 298.3c2.9 2.2 3.5 6.9 3.5 11a8.28 8.28 0 0 1-.5 3.5c-.5 1-1.5 1.8-2.4 1.5-1.3-.5-1.6-2.6-2.5-3.9-.4-.6-.9-1-1.3-1.6-1.2-2-.5-4.8.3-7 .5-1.3 1-2.8 2.1-3.3s2.6 1.1 1.9 2.3" fill="#475ca9"/><path d="M246.3 319.6a2.27 2.27 0 0 0-.3-2.7 4.12 4.12 0 0 0-2.4-1.1c-.3 0-.6-.1-.8.1a2 2 0 0 0-.4.8 5.63 5.63 0 0 0 .3 3.4 2.36 2.36 0 0 0 2.6 1.4 1.86 1.86 0 0 0 .9-2.7" fill="#10183f"/><path d="M180.1 245.1a4 4 0 0 0-.9-4.5c-.5-.5-1.4-.9-2-.4a1.35 1.35 0 0 0-.5.9 4.12 4.12 0 0 0 .7 4.3c1.1 1 3.3.3 3.3-1.2M411.8 85.9a9.57 9.57 0 0 0-1.9-3.4 15.59 15.59 0 0 1-2.4-6.3c-.1-.7-.7-1.6-1.2-1.2a.76.76 0 0 0-.2.5c-.6 2.6.2 5.2 1 7.7.7 2.1 1.7 4.5 3.8 4.8l.3-.9" fill="#475ca9"/><path d="M144.3 46c2.7 7.6.7 16.2.7 24.4a3.49 3.49 0 0 0 .6 2.5c.7.9 2.1.6 2.9-.2 1.9-1.8 1.8-5 1.6-7.8-.4-5-.8-10.1-1.2-15.1-.1-1.9-.8-4.3-2.5-4.1a1.3 1.3 0 0 0-.9 1.1" fill="#9c9dc3"/><path d="M379.4 190.9c.5.2.1 1.1-.3 1.5a57.74 57.74 0 0 1-15.5 9.5c-.2-2.5 1.7-4.7 3.5-6.3a42.78 42.78 0 0 1 7.8-5.6c1.4-.8 2.9-1.5 4.4-1.1a3.66 3.66 0 0 1-.6 3.2" fill="#9796bc"/><path d="M348.1 213.7a13 13 0 0 0 3.5-5.4 2 2 0 0 0 .1-1.5c-.5-.9-1.8-.4-2.6.1-7.8 5.2-13.6 13.1-21.5 18-3.2 2-7 3.9-7.8 7.6a1.38 1.38 0 0 0 .1 1.1 1.16 1.16 0 0 0 1 .4c3.6.4 7-1.3 10.1-3.3a56.75 56.75 0 0 0 17.7-17.8M213 211.4c.8-1 1.7-1.3 1.4-2.6a13.93 13.93 0 0 0-1.6-3.5c-1.6-2.6-3.3-5.4-6-6.1a1.1 1.1 0 0 0-.8 0c-.6.3-.4 1.4-.1 2 1.4 3.3 3 6.6 4.7 9.7.3.5.6 1.1 1.1 1.3s1.3-.2 1.3-.8M200.6 189.7a2 2 0 0 0 3.2-.7 4.56 4.56 0 0 0-.1-4.1 9.79 9.79 0 0 0-2.6-3.1 28.54 28.54 0 0 0-6.6-5.1 8.59 8.59 0 0 0-7.8-.2c1.7 3.5 5.6 4.7 8.2 7.5 2 2.1 3.5 5.3 6.2 5.6" fill="#10183f"/><path d="M230.5 214.4c-1.4 1.1-3.4-.3-4.5-1.6a64 64 0 0 1-8.8-12.5 7.88 7.88 0 0 1-1.3-3.9 3 3 0 0 1 2.3-3.1c1.5-.3 2.8.9 3.9 2 2.7 2.9 5.5 5.7 8.2 8.6s5.7 6.1 6.1 10.1c-2 1-4.1 1.6-5.9.4" fill="#9b9ac0"/><path d="M197.7 263.3a19.51 19.51 0 0 0 1.9-11.6 3.88 3.88 0 0 0-.9-2.3 2.16 2.16 0 0 0-2.4-.5c-.8.5-.8 1.6-.8 2.6a27.6 27.6 0 0 1-1.1 8.5 8.57 8.57 0 0 0-.5 2.7 2.41 2.41 0 0 0 1.5 2.1c.9.3 2.1-.5 1.9-1.4" fill="#0f183e"/><path d="M188 267.7c1.2.2 2.2-2.3 2.5-3.3a18.62 18.62 0 0 0 .2-7.8 2.52 2.52 0 0 0-1.1-1.9 2 2 0 0 0-2.4.9 4.68 4.68 0 0 0-.5 2.6v7.1c0 1 .3 2.3 1.3 2.4M178.6 269.7a5.18 5.18 0 0 0 2.2-3.8 1.34 1.34 0 0 0-.2-.9c-.2-.3-.6-.2-.9-.2-1.4.2-3 .4-4 1.6s-.9 3.5.5 3.9c1.2.4 1.7.6 2.4-.6" fill="#10183f"/><path d="M163.5 232.3c2.4 1.1 5.7-1 5.6-3.5a5.35 5.35 0 0 0-3.4-4.2 16 16 0 0 0-5.8-.8.84.84 0 0 0-.7.2c-.3.2-.3.6-.3 1 0 1.5.1 3.3 1.5 4.2M366 263.3a78.93 78.93 0 0 0 15.7-4.1c3.7-1.4 8-4.1 8.1-8.5-3.8-3.8-9.6-1.4-14.1 1l-8.6 4.7c-1.7.9-3.7 2.4-3.6 4.5M413.7 181l-3 1 3-1.2a15.85 15.85 0 0 0-8.9 4.5c-1.1 1.2-2.2 2.8-1.7 4.3 2.3 1.2 5.2.2 7.4-1.2 1.1-.7 2.1-1.5 3.2-2.1z" fill="#0f183d"/><path d="M376.9 124.2c-.2.7-1.2.3-1.7-.1a75.35 75.35 0 0 1-11.8-12.8c-1-1.4-1.9-3.2-1-4.6a3.06 3.06 0 0 1 2.7-1.1c3.1.3 5 3.5 6.8 6.2a42.62 42.62 0 0 0 5.9 7.4c1 1 2.2 2.3 1.7 3.7-.6 1.6-2.8 1.6-4.4 1.2" fill="#0c183c"/><path d="M362.2 20.3c.9 2.1 1.4 4.3 2.7 6.3s3.6 3.5 5.9 3c.1-1.7-.8-3.4-1.6-5-2.4-4.6-5.1-9.5-9.7-12.2a1.09 1.09 0 0 0-1.1-.2c-.3.1-.4.4-.5.6a3.17 3.17 0 0 0 1.8 4.1" fill="#0b183b"/><path d="M178.8 13.2l-4.8 7.5a28.65 28.65 0 0 1-3.6 4.8 11 11 0 0 0-2 2.3 5.74 5.74 0 0 0-.2 5.4 7.07 7.07 0 0 0 4 3.6 1.27 1.27 0 0 0 .6.1c.8 0 1.1-1 1.3-1.7a35.53 35.53 0 0 1 5.7-12.5c1.7-2.4 3.7-4.6 4.8-7.3.6-1.3.9-3.1-.1-4.1s-3.1-.6-4.4.4M203.4 11.2a86.4 86.4 0 0 1-6.4 9.4c-.8 1-1.9 2.1-3.1 1.7a2.14 2.14 0 0 1-1.3-2.3 6.82 6.82 0 0 1 1-2.7 42.54 42.54 0 0 1 8.4-10c.9-.7 2.1-1.5 3-.8.8.5.8 1.6.6 2.6a7.46 7.46 0 0 1-4.3 5.3" fill="#0a183b"/><path d="M134.2 188.9c.6 1.4 2.6 1.7 3.9.9a4.45 4.45 0 0 0 1.8-3.9 12.84 12.84 0 0 0-1-4.3 36.83 36.83 0 0 1-1.4-7.5c-.2-2-.2-4.1-1.1-5.9s-3-3.2-5-2.6c-.1 5.3-.2 10.6-.3 16a14 14 0 0 0 .5 5 5.18 5.18 0 0 0 3.5 3.4M134.1 207a3.46 3.46 0 0 0 .7-1.2 7.35 7.35 0 0 0 .7-3 2.33 2.33 0 0 0-1.5-2.3c-1.5-.4-2.5 1.5-2.8 3.2a5.67 5.67 0 0 0 .1 2.6 1.89 1.89 0 0 0 1.8 1.4 1.37 1.37 0 0 0 1-1.9" fill="#10183f"/><path d="M70.5 135.4c1.7-.7 3.8-2 3.6-4a3 3 0 0 0-2.3-2.3 19.53 19.53 0 0 0-3.4-.3c-5.5-.3-10.9-3.9-16.2-2.4 2.1 5.1 7.6 7.4 12.7 9.1 2 .7 4.5 1.3 6.2-.1" fill="#0a183a"/><path d="M310.6 273.8c.3.8-1 1.6-1.5 2.2a6.34 6.34 0 0 1-2.1 1.2c-4 1.6-8 3.2-12.1 4.8a2.7 2.7 0 0 1-1.5.3c-1.2-.3-1.7-2.1-1.3-3.4a7 7 0 0 1 3.7-4c1.6-.8 3.3-1.3 4.9-2.2 1.4-.8 2.6-1.9 4-2.7a4.86 4.86 0 0 1 4.5-.5 3.35 3.35 0 0 1 1.4 4.3" fill="#9ea2c9"/><path d="M288.8 261.8c4.3-3.1 3.2 2.2 2.4 4.9a12.41 12.41 0 0 1-3.1 5 31.09 31.09 0 0 1-7.9 5.5c-2 .9-5.1 1.1-5.7-.8a3.5 3.5 0 0 1 .6-2.6 35 35 0 0 1 13-12.9c.8-.5 2.2-.8 2.5.1" fill="#0f183d"/><path d="M279.3 247.5a22.17 22.17 0 0 1-9 6.6 2.35 2.35 0 0 1-2.3 0 2.93 2.93 0 0 1-.9-2.1c-.3-2.5 0-5.3-1.2-7.4-.6-1.1-1.6-2.1-1.7-3.4a2.9 2.9 0 0 1 2.5-2.8 6.11 6.11 0 0 1 3.6 1.3 13.62 13.62 0 0 0 3.4 2.1c3.1 1 6.3-1.2 9.5-1.1 0 3.1-1.6 5.2-3.9 6.8" fill="#10183f"/><path d="M325.6 75.2c2.5 1.3 5.3 1.7 7.2-.4a16.55 16.55 0 0 0-5.1-6.3 32.12 32.12 0 0 1-3-2.1c-.9-.8-1.7-1.8-2.6-2.6-3.8-3.5-9.4-3.6-14.4-3.5a3.28 3.28 0 0 0-1.9.4 2.42 2.42 0 0 0-.4 3.1 5.65 5.65 0 0 0 2.4 2.2 103.53 103.53 0 0 0 17.8 9.2" fill="#9c9dc3"/><path d="M321.3 53.5a26 26 0 0 0-4.6-1.2 12.22 12.22 0 0 1-6.4-4.3 2.78 2.78 0 0 1-.8-2.1 2 2 0 0 1 1.9-1.6 6.35 6.35 0 0 1 2.7.4 24.57 24.57 0 0 1 7.5 3 8.57 8.57 0 0 1 4 6.7 7.09 7.09 0 0 1-4.9-1.2" fill="#0a183b"/><path d="M331.6 46.8a18.54 18.54 0 0 0 16.4 7.6c1.6-.2 3.4-.8 3.8-2.4a3 3 0 0 0-1.4-3.1 6.68 6.68 0 0 0-3.3-1 51.35 51.35 0 0 1-5.5-.6c-4.8-1.2-8.6-5.3-13.2-7.3a8 8 0 0 0 3.2 6.8M302.7 34.7a18.83 18.83 0 0 0 8.2.6c.4-1.9-1.5-3.3-3-4.5a21.37 21.37 0 0 1-8.2-13.3c-.3-1.5-.4-3.2-1.6-4.3s-3.3-1.2-5-.9a1.14 1.14 0 0 0-.8.3 1.16 1.16 0 0 0-.2 1c.1 2.3 1.3 4.5 1.7 6.8s0 5.1-2 6.2c-1 .5-2.5.8-2.7 1.9s.9 1.9 2 2.3c3.9 1.6 7.2 4 11.6 3.9M243.5 28.9c.6 1.3 2.6.7 3.6-.3 4.2-4 4.9-10.3 5.3-16a4.07 4.07 0 0 0-.2-2.2 1.79 1.79 0 0 0-1.7-1.2c-.7 2.1-1.4 4.2-3.1 5.6s-4.6 1.6-5.8-.2c-.1-.2-.2-.4-.4-.4-.4-.1-.8.4-.8.9-.5 2.4-.3 4.9-.9 7.3-.8 3.1-2.9 5.7-4.9 8.2-.7.9-1.4 2.3-.6 3.1a2.15 2.15 0 0 0 1.6.4 8.8 8.8 0 0 0 5.2-2c1.5-1.3 2.9-3.2 4.8-3M193 .3c-.2.2-.3.4-.5.6a6.59 6.59 0 0 0-1.4 2.6 2.43 2.43 0 0 0 1.1 2.6 1.73 1.73 0 0 0 1.7-.1.37.37 0 0 1-.3-.1l1-.9a1.2 1.2 0 0 1-.7 1 4.36 4.36 0 0 0 3.7-1.4 11.31 11.31 0 0 0 1.9-3.8c0-.1.1-.3.1-.4H193z" fill="#9c9dc3"/><path d="M283.9 19.2a2.82 2.82 0 0 0 2.2-2.8 6 6 0 0 0-1.4-3.6c-.8-1-1.8-1.8-2.7-2.8-1.5-1.7-3-4-5.1-3.8a1.19 1.19 0 0 0-.9.5 1.88 1.88 0 0 0-.2.8 20.51 20.51 0 0 0 1.1 6 11.39 11.39 0 0 0 2.1 4.1c1.1 1.1 3.5 2.3 4.9 1.6" fill="#0a183b"/><path d="M393.1 307.2a6.86 6.86 0 0 0 1.1-2.8 2.94 2.94 0 0 0-.9-2.7 2.49 2.49 0 0 0-2.2-.4c-2.3.5-4.2 3.1-4.2 5.8a2.92 2.92 0 0 0 1 2.5 2 2 0 0 0 1.1.3c1.9.2 4.2-.4 4.8-2.5M395.6 321.8c.5-1.5-1.2-3.2-2.9-3a3.4 3.4 0 0 0-2.8 3.6 2.39 2.39 0 0 0 .5 1.4 2.71 2.71 0 0 0 3.5.4 3.27 3.27 0 0 0 1.3-3.3" fill="#9da0c6"/><path d="M338.8 244.3c.3.2 1-.5 1.2-.8a2 2 0 0 0 .2-1.1 11.29 11.29 0 0 0-1-4.4 4.72 4.72 0 0 0-3.7-2.5 1.08 1.08 0 0 0-.8.2 1.14 1.14 0 0 0-.3.8 8.4 8.4 0 0 0 4.4 7.8" fill="#9d9fc6"/><path d="M326.1 254.6c.7.1.9-.9.9-1.7a30.41 30.41 0 0 0-1.6-9c-.2-.5-.6-1.2-1.1-1.1s-.7.6-.8 1.1c-.6 2.3-1.3 4.5-1.9 6.8-.4 1.5-.8 3.5.3 4.6a2.15 2.15 0 0 0 2.9.1c.9-.6 1.3.4 1.3-.8" fill="#10183f"/><path d="M395.4 295.3c.2 0 .3.4.1.5a1.7 1.7 0 0 1-.7.1c-3.7-.6-7.5.5-11.3 1-.9.1-2 .1-2.4-.7a1.47 1.47 0 0 1 .6-1.7c1.4-1.3 3.4-1.7 5.3-2l7.8-1.3a2.25 2.25 0 0 1 1.8.2 1.62 1.62 0 0 1 .5.9 3.32 3.32 0 0 1-2.5 3.5" fill="#0f183d"/><path d="M397.7 140.3c.9.1 1.8.1 2.8.2a11.5 11.5 0 0 0 3.7-.1 6.92 6.92 0 0 0 4-2.4 3.69 3.69 0 0 0 .7-1.4c.2-1.3-1.1-2.3-2-3.3-2.1-2.5-1.7-6.1-2.2-9.3a17.54 17.54 0 0 0-6-10.7 1.91 1.91 0 0 0-1-.5c-.8.1-1 1.1-.9 1.8a41.62 41.62 0 0 0 1.5 9.9c.6 2.1 1.1 4.8-.6 6.3-1.4 1.2-3.5.8-5.4.4a50.52 50.52 0 0 0-6.8-.8 8.16 8.16 0 0 0 6.8 5.9c1.6.2 3.4 0 4.5 1.1.7.7 1.4 2 2.3 1.7" fill="#0e183d"/><path d="M389.3 120.1a23.36 23.36 0 0 1-3.9-4.9 9.27 9.27 0 0 1-1.2-6.1 23.93 23.93 0 0 1 1.8-4.4 15.69 15.69 0 0 0 1.2-8 1.73 1.73 0 0 1 .1-1 1.08 1.08 0 0 1 1.4-.3 3 3 0 0 1 .9 1.3 20.35 20.35 0 0 1 1.3 11.7c-.4 1.9-1 4-.5 5.9a16 16 0 0 1 1 3.1c.1 1.1-.5 2.4-1.5 2.4s-1.6-1.3-1.8-2.4M413.7 100.5a4.7 4.7 0 0 0-.6-.9v.2l-.3-.6a1.48 1.48 0 0 0-1.3 0 11.91 11.91 0 0 1-4.4 1.4c-3.4-.1-5.3-4-8-6.1a9.25 9.25 0 0 0-6.4-2c.4 4.1 1.3 8.7 4.6 11.1a22.61 22.61 0 0 0 4.4 2.2 16.2 16.2 0 0 1 4.9 3.8 5.17 5.17 0 0 0 1.7 1.6c1.5.7 3.3-.2 4.4-1.4a5.6 5.6 0 0 0 1-1.5v-7.8z" fill="#9d9fc6"/><path d="M390 82.8c0 .6-.8.8-1.3.8-2.5 0-4.6-1.8-5.9-3.9s-2.2-4.4-3.7-6.4c-.9-1.2-2.1-2.2-2.9-3.5s-1.3-3-.6-4.3a4.7 4.7 0 0 1 3.3-2.1 4.6 4.6 0 0 1 2.6 0c1.6.6 2.1 2.5 2.7 4.1 1.8 4.8 6.1 8.5 7.2 13.5-.4.1-.7.3-1.1.4" fill="#0e183d"/><path d="M383.6 38.2a5.41 5.41 0 0 1 2.7 1.4 1.79 1.79 0 0 1 .1 2.6 1.5 1.5 0 0 1-1.1.4c-2.8.5-5.5-.8-7.9-2.3-1.7-1.1-3.4-2.5-3.7-4.4s1.8-4.1 3.6-3.3" fill="#9d9fc5"/><path d="M205.1 250.4a14.38 14.38 0 0 0 5.6 2.6c2 .3 4.4-.5 5.2-2.4-2.3-3.2-6.2-4.9-8.5-8-1.3-1.8-2.1-4-3.9-5.2a1.43 1.43 0 0 0-1.1-.3c-1 .2-1.1 1.5-1 2.4a34.64 34.64 0 0 0 3.3 10.8c.4.8 1.2 1.8 2 1.4M189.6 246.1c1.9-.6 2.7-3.1 2.8-5.2.1-2.5-.6-5.5-2.8-6.6a2.23 2.23 0 0 0-2.1 0 3 3 0 0 0-1 2.4 19.8 19.8 0 0 0 .6 2.6 14.38 14.38 0 0 1 0 7.7 2 2 0 0 0 2.7-1.1M293.4 240.2c1.9-.6 2.7-3.1 2.8-5.2.1-2.5-.6-5.5-2.8-6.6a2.23 2.23 0 0 0-2.1 0 3 3 0 0 0-1 2.4 19.8 19.8 0 0 0 .6 2.6 14.38 14.38 0 0 1 0 7.7 2 2 0 0 0 2.7-1.1" fill="#9d9ec3"/><path d="M154.5 176.8a2 2 0 0 0 2.9-1.2c.1-1-.8-1.7-1.6-2.4a17.82 17.82 0 0 1-6-11 7.27 7.27 0 0 0-.7-2.9 2.43 2.43 0 0 0-2.8-1.1 2.84 2.84 0 0 0-1.5 2.3 18.35 18.35 0 0 0-.2 8.4 11.53 11.53 0 0 0 4.9 7 6.7 6.7 0 0 0 5.5 1" fill="#9c9dc3"/><path d="M143.7 160.5c-2.1-1.8-4.3-3.5-6.8-4.1-1.4-.3-3-.2-4.2-1.2a8.09 8.09 0 0 1-1.7-2.3c-.8-1.3-1.5-2.6-2.3-3.8a3.49 3.49 0 0 1-.5-1.3c0-.9.9-1.3 1.6-1.4 1.7-.1 3.3 1 4.7 2.2a23.67 23.67 0 0 0 4.1 3.7c1.5 1 3.3 1.4 4.5 2.8a6.29 6.29 0 0 1 1.1 5.2.76.76 0 0 1-.2.5c-.3.3-.8 0-1.1-.3a18.48 18.48 0 0 1-1.9-2.7M144.3 145.8c.1.4-.5.6-1 .6a21.42 21.42 0 0 1-12.7-4.6c-.4-.4-.9-.8-.9-1.3a1.48 1.48 0 0 1 1.3-1.3 4.42 4.42 0 0 1 2 .2c1.8.5 3.7.9 5.5 1.4a10 10 0 0 1 3.4 1.3 2.7 2.7 0 0 1 1 3.1c-.5 0-1 .1-1.5.1" fill="#9c9cc2"/><path d="M37.9 122.1a1.11 1.11 0 0 0 1.6.9 2 2 0 0 0 1-1.9 7.85 7.85 0 0 0-.5-2.2 30.64 30.64 0 0 1-1.8-9 10 10 0 0 0-.6-4.2c-.6-1.3-2.3-2.1-3.3-1.2a4.06 4.06 0 0 0-1 2.7c-.4 5-.1 10.4 2.8 14.2.5.7 1.5 1.4 2.2.8" fill="#9c9cc1"/><path d="M161.4 326.1a23.25 23.25 0 0 1 .4 5.3 7.56 7.56 0 0 1-1.8 4.7 6.13 6.13 0 0 1-4.3 1.7 1.34 1.34 0 0 1-.9-.2 1.43 1.43 0 0 1-.3-1.1 10.27 10.27 0 0 1 2-4.8c1.5-2.4 3-5.2 2.7-8.2.8-.6 1.8.1 2.2 1a6.37 6.37 0 0 1 .2 3.1" fill="#9897bd"/><path d="M201.9 230.1c2.4.5 4.3 2.8 6.7 2.4.1-2.7-1.8-5.2-1.9-7.9 0-1.7.7-3.4.4-5.1a7.5 7.5 0 0 0-.9-2.5 29.8 29.8 0 0 0-5-6.8 3.59 3.59 0 0 0-1.4-1 1.38 1.38 0 0 0-1.6.4 2.34 2.34 0 0 0-.2 1.2c.2 2 .8 4 .7 6s-.8 4.2-2.6 5.3c-.8.5-1.7.8-2.5 1.3a2 2 0 0 0-1.1 2.2c.3.9 1.3 1.3 2.1 1.6 2.7 1 5.3 2 8 3" fill="#9997bd"/><path d="M190.9 217.6a1.23 1.23 0 0 0 1.7.1 3.36 3.36 0 0 0 1-1.6 3.9 3.9 0 0 0 .2-2.6 1.7 1.7 0 0 0-1.9-1.3 2.34 2.34 0 0 0-1.2 1 4.47 4.47 0 0 0-1.2 3.1c.1 1.1 1.3 2.1 2.2 1.5" fill="#0f183e"/><path d="M182.3 190.3a8.06 8.06 0 0 1-1.4-4.6c0-1.7.4-3.3.1-5a7.12 7.12 0 0 0-2.9-4.3 21.26 21.26 0 0 0-4.5-2.3 5.89 5.89 0 0 0 .9 3.3c.9 2.4.9 5 1.6 7.5s2.6 4.9 5 4.6c-.2-.6-.4-1.1-.6-1.7" fill="#9997bd"/><path d="M156 128.1a1.85 1.85 0 0 0 2.2 2.2c1.4-.3 1.9-1.8 2.2-3 .4-1.6.8-3.1 1.2-4.7a2.46 2.46 0 0 0 .1-1.2c-.3-1.3-2.3-1.6-3.5-.9a4.62 4.62 0 0 0-1.8 3.4 20.28 20.28 0 0 0-.4 4.9" fill="#0a183b"/><path d="M371.8 17.9c.5-.6.1-1.6-.4-2.3-1.9-2.8-4-5.4-6.1-8-1.1-1.3-2.3-3.3-1.4-4.8a2.61 2.61 0 0 1 3.3-.7c2.1.9 3.4 3.2 4.6 5.4 1.3 2.5 2.6 5.4 1.7 8.1h-1.7" fill="#9b9abf"/><path d="M374.7.3h-3.8a18 18 0 0 1 2 1.9h-1.1a6 6 0 0 0 2.4 1.2.63.63 0 0 0 .8-.2 1.34 1.34 0 0 0 .2-.9 4.23 4.23 0 0 0-.5-2z" fill="#9c9cc2"/><path d="M337.8.3a12.73 12.73 0 0 0 1.3 1.9c.6.8 1.6 1.5 2.5 1a28.86 28.86 0 0 0-.4-2.9z" fill="#0a183b"/><path d="M192.9 27.1c.2-.3.6-.2.8.1a2.34 2.34 0 0 1 .2 1.2c-.1 3.3-1.5 6.4-2.8 9.3-.9 1.8-2.2 4-3.8 3.6a.55.55 0 0 1-.5-.3 2.2 2.2 0 0 1-.1-.8 30.16 30.16 0 0 1 2-9.1c.7-1.8 1.7-3.7 3.2-4.3" fill="#9a98be"/><path d="M184.3 24.4a26.8 26.8 0 0 1-.2 4.9 2.33 2.33 0 0 1-.7 1.5c-.7.6-1.8 0-2.3-.8a4.92 4.92 0 0 1-.2-2.7 6.57 6.57 0 0 1 .6-2.5 2.08 2.08 0 0 1 2.2-1.1c1 .3 1.4 1.6 1.5 2.6" fill="#0a1839"/><path d="M183.7 53.9c-.1-.7-1-1-1.7-.9a4 4 0 0 0-1.8 1 42.42 42.42 0 0 0-6 7.3 38.62 38.62 0 0 0-4.4 7.2c-1.5 3.5-1.8 7.3-2.2 11.1-.1 1.4-.1 3.2 1.3 3.8s3.1-.7 3.9-2c2.8-4.6 2.3-10.5 4.7-15.2 1.8-3.5 5-6.2 6-10a2.22 2.22 0 0 0-.1-1.6 1 1 0 0 0-1.5-.2M170.4 108.3a.63.63 0 0 1 .9.4 2.46 2.46 0 0 1-.1 1.2c-.6 1.8-2.5 3.5-4.2 2.8-2-.8-2-3.6-3.1-5.4-.4-.7-1-1.2-1.4-1.9-1-1.7-.7-3.8-.4-5.8a14 14 0 0 1 1.5-4.9 18.6 18.6 0 0 1 2.1-2.8c1.4-1.6 2.8-3.2 4.1-4.8.2-.2.4-.5.7-.5.6-.1 1 .5 1.2 1.1 1 3-.5 6.2-1 9.3a17.78 17.78 0 0 0 .1 6.9c.4 1.6 1 3.3.4 4.9M221.6 81.2a10.27 10.27 0 0 1-2 4.8 115.31 115.31 0 0 1-7.9 11.4c-1 1.2-2.5 2.6-4 2.1-1.1-2.6-.3-5.7 1.1-8.2s3.5-4.5 5.2-6.8c2.3-3.2 4.3-7.1 8.1-8.2a1.1 1.1 0 0 1 .8 0c.3.2.3.7.2 1.1a19.43 19.43 0 0 1-2.2 6.1" fill="#9a98be"/><path d="M215.5 67.8c.4.2.3.8 0 1.2a19.4 19.4 0 0 1-4.9 5.4c-.4.3-1 .7-1.5.4-.8-.4-.4-1.6.1-2.3a14.6 14.6 0 0 1 3-3.5 5.52 5.52 0 0 1 4.4-1.3.67.67 0 0 1 .7.4.64.64 0 0 1 0 .6 7.5 7.5 0 0 1-1 2" fill="#0a1839"/><path d="M200 66.6a34.56 34.56 0 0 0-3.2 5.2 24.75 24.75 0 0 1-1.9 3.6 6.11 6.11 0 0 1-3.6 2.4 1.32 1.32 0 0 1-1.2-.2 2.09 2.09 0 0 1-.4-.6c-.7-2.3.5-4.7 1.9-6.7a20.59 20.59 0 0 1 13.9-8.5 14 14 0 0 1-6.4 5.6" fill="#9a98be"/><path d="M227.3 45.1c-3.6 3.8-5.7 9.3-10.4 11.7-1.2.6-2.9.9-3.7-.3s.3-2.7 1.2-3.7c3.1-3.3 6.2-6.5 9.3-9.8a4.36 4.36 0 0 1 2.7-1.7 1.08 1.08 0 0 1 .8.2c.3.2.3.6.4.9a6.11 6.11 0 0 1-2.4 5.1" fill="#0e183d"/><path d="M289.1 64.7a18.54 18.54 0 0 0-10.6-2 5.33 5.33 0 0 1-2.8-.1 2.32 2.32 0 0 1-.6-3.8 5.73 5.73 0 0 1 2.4-.9c3.6-.6 7.4-1.2 10.6.5 1.6.8 2.9 2.7 2.1 4.2a2.39 2.39 0 0 1-3.9.2" fill="#0c183c"/><path d="M288.9 49.3a6.72 6.72 0 0 0 2.4.4 2.22 2.22 0 0 0 1.9-1.3 3.41 3.41 0 0 0 0-2 26.41 26.41 0 0 0-2.3-6.1 1 1 0 0 0-.4-.5c-.2-.1-.3 0-.5 0-1.5.5-1.9 2.4-2 4s-.3 2.9-.4 4.4a2 2 0 0 0 .1.8 1.46 1.46 0 0 0 .9.6 9.86 9.86 0 0 0 2.4.3" fill="#9a99be"/><path d="M349.5 90.7c0 .3.4-.1.4-.4a5.8 5.8 0 0 0-1.8-3c-1.7-2-3.5-3.9-5.3-5.7-1.3-1.3-2.9-2.7-4.6-2.3-.3.1-.6.2-.7.4-.4.5-.1 1.2.2 1.8a54.94 54.94 0 0 0 8.4 10.8c1 1 2.6 2.1 3.7 1.2.9-.7.7-2.3.5-3.5" fill="#9a99bf"/><path d="M397 337c.5-2.7-1.1-5.7-3.4-6.5a.64.64 0 0 0-.6 0c-.2.1-.2.4-.2.7a9.5 9.5 0 0 0 1.2 5c.5.8 1.1 1.6 2 1.6s1.6-1.3 1-1.9" fill="#0f183d"/><path d="M17.7 108.3a5.88 5.88 0 0 0-2.8-8.5 1.69 1.69 0 0 0-1.7.2 1.4 1.4 0 0 0-.3.9 8.06 8.06 0 0 0 .7 5.3 4.16 4.16 0 0 0 4.6 2.1M5.8 95.6c-.8-1.1-1.8-1.9-2.6-3A24.75 24.75 0 0 1 1.3 89v8.2a10.91 10.91 0 0 0 3.3 1.9 2.46 2.46 0 0 0 1.2.1l1-1.4a8.75 8.75 0 0 0-1-2.2z" fill="#9da1c8"/><path d="M8.8 12.1a7.06 7.06 0 0 0-3.5-1.6 27.27 27.27 0 0 0-4.1-1v4.1c1 .6 1.9 1.1 2.9 1.7 1.7 1 4.1 1.9 5.3.3a2.68 2.68 0 0 0-.6-3.5z" fill="#9c9dc3"/><path d="M7 2.5a8.73 8.73 0 0 0 5.2 3.6 3.62 3.62 0 0 0 2.3 0 1.83 1.83 0 0 0 1.2-1.8c-.1-.8-1-1.3-1.8-1.6a12.25 12.25 0 0 0-6-.6c-1.7.2-1.2.7 1.4.9" fill="#0a183b"/><path d="M42.3 112.1a10.83 10.83 0 0 0 3.5 6 9 9 0 0 0 6.7 2 4 4 0 0 0 1.9-.7 1.72 1.72 0 0 0 .6-1.8 2.78 2.78 0 0 0-1.2-1.2c-3.2-2-6.4-4.1-9.5-6.1-.4-.2-.8-.5-1.2-.4A1.18 1.18 0 0 0 42 111a4.33 4.33 0 0 0 .1 1.6M64.8 234l1.8.6a3.07 3.07 0 0 0-.4-2.9 21.46 21.46 0 0 0-1.8-2.4c-1.8-2.7-1.5-6.3-1.2-9.6a2.17 2.17 0 0 0-2.6.5 6 6 0 0 0-1.3 2.5c-.8 2.5-1.6 5.1-1.1 7.7s2.5 5.1 5.1 5.1a3 3 0 0 0 1.8-.6 1.53 1.53 0 0 0 .3-1.8M52.2 229.7a4 4 0 0 0 1.3-4.3 5 5 0 0 0-3.9-3 1.38 1.38 0 0 0-1.1.1 1.46 1.46 0 0 0-.6.9c-.5 2.3 1.3 4.7 4 5.3M1.3 196.1v7.1c2 .2 4.1-1.4 4.1-3.2s-1.9-3.7-4.1-3.9zM22.3 203.4a21.62 21.62 0 0 1 .7-7.6 4 4 0 0 1 1.5-2.4 3.89 3.89 0 0 1 1.5-.2h3.4c.2 0 .5 0 .6.2a.76.76 0 0 1 .2.5c.4 2-1 3.8-2.3 5.3l-2.3 2.6a4.12 4.12 0 0 1-2.1 1.6 1.64 1.64 0 0 1-2-1.2M30.6 204.3a7.83 7.83 0 0 1 3.8-2.3 1.39 1.39 0 0 1 1.1 0c.3.1.4.4.5.7a2.83 2.83 0 0 1-2.5 3.6 3 3 0 0 1-3.2-3.1" fill="#9ea5cb"/><path d="M286.1 372.7v-.6a4.64 4.64 0 0 0-1.1-2.8 2.79 2.79 0 0 0-3-.7 3.14 3.14 0 0 0-1.5 1.7 24.42 24.42 0 0 0-1 2.4h6.6z" fill="#9da1c8"/><path d="M282.5 351.3c1.1-.1 2.2-.1 3.2-.2a9.06 9.06 0 0 1 3.3.2 16.88 16.88 0 0 1 3.6 1.7 8.91 8.91 0 0 0 3.9.9c.4 0 1-.1 1.1-.5a1.41 1.41 0 0 0-.1-.9 5.65 5.65 0 0 0-2.4-2.2 19.79 19.79 0 0 0-9.9-2.3 7.46 7.46 0 0 0-2.6.4 2 2 0 0 0-1 .8c-.3.8.5 1.5 1.2 1.9" fill="#9d9fc6"/><path d="M278.9 346.5a9.89 9.89 0 0 0 2.4-.9 3.92 3.92 0 0 0 1.8-1.8 12.76 12.76 0 0 0-3.9-.1 4.8 4.8 0 0 0-1.7.5 4.31 4.31 0 0 0-1.3 1.7 2.1 2.1 0 0 0-.4 1.1c0 .4.1.8.5.9.6.2 1.1-.3 1.5-.7a9.51 9.51 0 0 1 2-1.5" fill="#9d9fc5"/><path d="M217.7 372.7a9.5 9.5 0 0 0-1-1.7 3.13 3.13 0 0 0-1.1-.9c-.2-.1-.5-.3-.7-.2s-.4.6-.4.9a12.1 12.1 0 0 0 .1 1.9z" fill="#9d9ec4"/><path d="M178.1 355.8c.9-.3 2-.5 2.5.2a1.08 1.08 0 0 1 .2.8 4.79 4.79 0 0 1-.7 2 21.12 21.12 0 0 1-2.1 3.1 5.74 5.74 0 0 1-2.2 1.9 2.72 2.72 0 0 1-2.9-.3 2 2 0 0 1-.6-1.3c-.4-2.2.9-4.4 2.8-5.8a3.78 3.78 0 0 1 3.2-1 1.8 1.8 0 0 0 1 .1" fill="#9c9dc3"/><path d="M177.2 371.2c.6-.2.7-.9.7-1.5a6.81 6.81 0 0 0-.4-2.8 2 2 0 0 0-3.8-.1 3.06 3.06 0 0 0 .1 2.3 2.94 2.94 0 0 0 1.3 1.8 1.65 1.65 0 0 0 2-.1" fill="#9c9cc2"/><path d="M284 354a25.41 25.41 0 0 1 3.9-.1 4.27 4.27 0 0 1 2 .6c.5.4.7 1.3.2 1.7a4.18 4.18 0 0 1-1 .4 11.25 11.25 0 0 1-4.1-.1 3 3 0 0 1-1.3-.5 1.07 1.07 0 0 1-.5-1.1 1.21 1.21 0 0 1 1.2-.8" fill="#9d9fc5"/><path d="M94.6 328.1a4.9 4.9 0 0 1-4.6 4.2 6 6 0 0 1 3.4-7.1.88.88 0 0 1 .7-.1c.3.1.4.6.4 1v2.8M94.3 319.6c-1.6.6-3.2 1.1-4.8 1.7a7.8 7.8 0 0 1 0-3.4 2.88 2.88 0 0 1 2.4-2.2 2.24 2.24 0 0 1 1.8 3.5M111.8 349.4a10.93 10.93 0 0 1-1 5c-.3.5-.6 1.1-1.2 1.2-1.1.2-1.6-1.3-1.6-2.4a11.94 11.94 0 0 1 .3-4.2 4.76 4.76 0 0 1 2.6-3.1 6.18 6.18 0 0 1 .4 7" fill="#9da0c6"/><path d="M146.6 17.6c-5.1-5.7-5.7-11.2-7.1-17.4h-8.6v1c.3 5.1 2.4 9.8 4.1 14.6a31.45 31.45 0 0 0 3.1 6.7c1.5 2 3.9 3.5 6.3 3.3s4.7-2.7 4.1-5.1c-.1-1.2-1.1-2.1-1.9-3.1z" fill="#9ea5cb"/><path d="M80.9 104.4c1.9.6 3.9-.1 5.9-.1s4.3 1.5 3.9 3.4c-.3 1.4-2 2.1-3.5 2.3a22 22 0 0 1-10.8-.9c-.6-.2-1.4-.6-1.3-1.3s.6-.9 1.1-1.2a14 14 0 0 1 8.1-.9" fill="#9997bd"/><path d="M113.9.3a28.12 28.12 0 0 0-.9 15.2c.4 1.8 1.8 4 3.5 3.2 1.1-.5 1.3-1.9 1.3-3.1l.6-15.4h-4.5z" fill="#0c183c"/><path fill="none" stroke="#131242" stroke-width="4" d="M1.534 2h411.794v369H1.534z"/></svg>